<svg width="23" height="22" viewBox="0 0 23 22" fill="none" xmlns="http://www.w3.org/2000/svg">
<path fill-rule="evenodd" clip-rule="evenodd" d="M11.5 1.75C6.39137 1.75 2.25 5.89137 2.25 11C2.25 16.0825 6.34923 20.2077 11.4218 20.2497C11.836 20.2531 12.169 20.5917 12.1655 21.0059C12.1621 21.4201 11.8236 21.7531 11.4094 21.7496C5.51395 21.7009 0.75 16.9068 0.75 11C0.75 5.06294 5.56294 0.25 11.5 0.25C17.4068 0.25 22.2009 5.01395 22.2496 10.9094C22.2531 11.3236 21.9201 11.6621 21.5059 11.6655C21.0917 11.669 20.7531 11.336 20.7497 10.9218C20.7077 5.84923 16.5825 1.75 11.5 1.75ZM11.5 6.75C9.15279 6.75 7.25 8.65279 7.25 11C7.25 12.7835 8.34882 14.3122 9.90922 14.9425C10.2933 15.0976 10.4789 15.5347 10.3237 15.9188C10.1686 16.3029 9.73145 16.4884 9.34739 16.3333C7.2395 15.4818 5.75 13.4157 5.75 11C5.75 7.82436 8.32436 5.25 11.5 5.25C13.9157 5.25 15.9818 6.7395 16.8333 8.84739C16.9884 9.23145 16.8029 9.66857 16.4188 9.82371C16.0347 9.97885 15.5976 9.79328 15.4425 9.40922C14.8122 7.84882 13.2835 6.75 11.5 6.75ZM12.6864 11.7688C12.4283 11.6828 12.1828 11.9283 12.2688 12.1864L14.8814 20.0243C14.9818 20.3252 15.4075 20.3252 15.5078 20.0243L16.4725 17.13C16.6547 16.5835 17.0835 16.1547 17.63 15.9725L20.5243 15.0078C20.8252 14.9075 20.8252 14.4818 20.5243 14.3814L12.6864 11.7688ZM10.8458 12.6607C10.3689 11.23 11.73 9.86888 13.1607 10.3458L20.9986 12.9584C22.6671 13.5146 22.6671 15.8746 20.9986 16.4308L18.1043 17.3956C18.0058 17.4284 17.9284 17.5058 17.8956 17.6043L16.9308 20.4986C16.3746 22.1671 14.0146 22.1671 13.4584 20.4986L10.8458 12.6607Z" fill="#2AB579"/>
</svg>
