<svg width="26" height="27" viewBox="0 0 26 27" fill="none" xmlns="http://www.w3.org/2000/svg">
<g filter="url(#filter0_d_1228_7070)">
<circle cx="13" cy="11.5" r="9" fill="white"/>
</g>
<path fill-rule="evenodd" clip-rule="evenodd" d="M13 7.29688C13.2578 7.29688 13.4669 7.50589 13.4669 7.76373V11.0317H16.7348C16.9927 11.0317 17.2017 11.2407 17.2017 11.4985C17.2017 11.7564 16.9927 11.9654 16.7348 11.9654H13.4669V15.2334C13.4669 15.4912 13.2578 15.7002 13 15.7002C12.7422 15.7002 12.5332 15.4912 12.5332 15.2334V11.9654H9.26519C9.00736 11.9654 8.79834 11.7564 8.79834 11.4985C8.79834 11.2407 9.00736 11.0317 9.26519 11.0317H12.5332V7.76373C12.5332 7.50589 12.7422 7.29688 13 7.29688Z" fill="black"/>
<defs>
<filter id="filter0_d_1228_7070" x="0" y="0.5" width="26" height="26" filterUnits="userSpaceOnUse" color-interpolation-filters="sRGB">
<feFlood flood-opacity="0" result="BackgroundImageFix"/>
<feColorMatrix in="SourceAlpha" type="matrix" values="0 0 0 0 0 0 0 0 0 0 0 0 0 0 0 0 0 0 127 0" result="hardAlpha"/>
<feOffset dy="2"/>
<feGaussianBlur stdDeviation="2"/>
<feComposite in2="hardAlpha" operator="out"/>
<feColorMatrix type="matrix" values="0 0 0 0 0 0 0 0 0 0 0 0 0 0 0 0 0 0 0.25 0"/>
<feBlend mode="normal" in2="BackgroundImageFix" result="effect1_dropShadow_1228_7070"/>
<feBlend mode="normal" in="SourceGraphic" in2="effect1_dropShadow_1228_7070" result="shape"/>
</filter>
</defs>
</svg>
