<svg width="81" height="88" viewBox="0 0 81 88" fill="none" xmlns="http://www.w3.org/2000/svg">
<g filter="url(#filter0_d_516_2925)">
<circle cx="39.5" cy="32.5" r="32.5" fill="#F1F2FF"/>
</g>
<path opacity="0.4" d="M48.3927 17.7854V27.9642H29.8857V17.7854C29.8857 15.7412 31.5429 14.084 33.5871 14.084H44.6913C46.7355 14.084 48.3927 15.7412 48.3927 17.7854Z" fill="#1B1B1B"/>
<path fill-rule="evenodd" clip-rule="evenodd" d="M39.1395 51.1013C47.3164 51.1013 53.9451 44.4727 53.9451 36.2958C53.9451 28.1189 47.3164 21.4902 39.1395 21.4902C30.9627 21.4902 24.334 28.1189 24.334 36.2958C24.334 44.4727 30.9627 51.1013 39.1395 51.1013ZM40.5954 29.837C39.9998 28.5821 38.2786 28.5821 37.6829 29.837L36.6534 32.0059C36.4169 32.5042 35.9596 32.8496 35.4307 32.9295L33.1286 33.2773C31.7966 33.4785 31.2648 35.1805 32.2286 36.1573L33.8944 37.8455C34.2771 38.2334 34.4518 38.7923 34.3614 39.34L33.9682 41.7238C33.7407 43.1031 35.1331 44.1549 36.3245 43.5037L38.3835 42.3782C38.8566 42.1196 39.4218 42.1196 39.8949 42.3782L41.9539 43.5037C43.1453 44.1549 44.5377 43.1031 44.3102 41.7238L43.9169 39.34C43.8266 38.7923 44.0012 38.2334 44.384 37.8455L46.0498 36.1573C47.0136 35.1805 46.4818 33.4785 45.1497 33.2773L42.8477 32.9295C42.3188 32.8496 41.8615 32.5042 41.625 32.0059L40.5954 29.837Z" fill="#1B1B1B"/>
<defs>
<filter id="filter0_d_516_2925" x="0" y="0" width="81" height="88" filterUnits="userSpaceOnUse" color-interpolation-filters="sRGB">
<feFlood flood-opacity="0" result="BackgroundImageFix"/>
<feColorMatrix in="SourceAlpha" type="matrix" values="0 0 0 0 0 0 0 0 0 0 0 0 0 0 0 0 0 0 127 0" result="hardAlpha"/>
<feMorphology radius="12" operator="erode" in="SourceAlpha" result="effect1_dropShadow_516_2925"/>
<feOffset dx="1" dy="15"/>
<feGaussianBlur stdDeviation="10"/>
<feComposite in2="hardAlpha" operator="out"/>
<feColorMatrix type="matrix" values="0 0 0 0 0 0 0 0 0 0 0 0 0 0 0 0 0 0 0.25 0"/>
<feBlend mode="normal" in2="BackgroundImageFix" result="effect1_dropShadow_516_2925"/>
<feBlend mode="normal" in="SourceGraphic" in2="effect1_dropShadow_516_2925" result="shape"/>
</filter>
</defs>
</svg>
