<svg width="81" height="88" viewBox="0 0 81 88" fill="none" xmlns="http://www.w3.org/2000/svg">
<g filter="url(#filter0_d_516_2955)">
<circle cx="39.5" cy="32.5" r="32.5" fill="#F1F2FF"/>
</g>
<path opacity="0.4" d="M56.0758 43.549V25.1323C56.0758 21.0638 52.7776 17.7656 48.7091 17.7656H30.2924C26.224 17.7656 22.9258 21.0638 22.9258 25.1323V43.549C22.9258 47.6175 26.224 50.9156 30.2924 50.9156H48.7091C52.7776 50.9156 56.0758 47.6175 56.0758 43.549Z" fill="#1B1B1B"/>
<path fill-rule="evenodd" clip-rule="evenodd" d="M30.7524 28.8207C30.7524 28.0579 31.3708 27.4395 32.1337 27.4395H46.867C47.6299 27.4395 48.2483 28.0579 48.2483 28.8207C48.2483 29.5835 47.6299 30.202 46.867 30.202H32.1337C31.3708 30.202 30.7524 29.5835 30.7524 28.8207Z" fill="#1B1B1B"/>
<path fill-rule="evenodd" clip-rule="evenodd" d="M30.7524 36.184C30.7524 35.4211 31.3708 34.8027 32.1337 34.8027H46.867C47.6299 34.8027 48.2483 35.4211 48.2483 36.184C48.2483 36.9468 47.6299 37.5652 46.867 37.5652H32.1337C31.3708 37.5652 30.7524 36.9468 30.7524 36.184Z" fill="#1B1B1B"/>
<path fill-rule="evenodd" clip-rule="evenodd" d="M30.7524 43.5473C30.7524 42.7844 31.3708 42.166 32.1337 42.166H39.5004C40.2632 42.166 40.8816 42.7844 40.8816 43.5473C40.8816 44.3101 40.2632 44.9285 39.5004 44.9285H32.1337C31.3708 44.9285 30.7524 44.3101 30.7524 43.5473Z" fill="#1B1B1B"/>
<rect x="32.1343" y="14.084" width="14.7333" height="7.36667" rx="3.68333" fill="#1B1B1B"/>
<defs>
<filter id="filter0_d_516_2955" x="0" y="0" width="81" height="88" filterUnits="userSpaceOnUse" color-interpolation-filters="sRGB">
<feFlood flood-opacity="0" result="BackgroundImageFix"/>
<feColorMatrix in="SourceAlpha" type="matrix" values="0 0 0 0 0 0 0 0 0 0 0 0 0 0 0 0 0 0 127 0" result="hardAlpha"/>
<feMorphology radius="12" operator="erode" in="SourceAlpha" result="effect1_dropShadow_516_2955"/>
<feOffset dx="1" dy="15"/>
<feGaussianBlur stdDeviation="10"/>
<feComposite in2="hardAlpha" operator="out"/>
<feColorMatrix type="matrix" values="0 0 0 0 0 0 0 0 0 0 0 0 0 0 0 0 0 0 0.25 0"/>
<feBlend mode="normal" in2="BackgroundImageFix" result="effect1_dropShadow_516_2955"/>
<feBlend mode="normal" in="SourceGraphic" in2="effect1_dropShadow_516_2955" result="shape"/>
</filter>
</defs>
</svg>
