<svg width="25" height="25" viewBox="0 0 25 25" fill="none" xmlns="http://www.w3.org/2000/svg">
<path fill-rule="evenodd" clip-rule="evenodd" d="M11.4583 2.86523C10.1639 2.86523 9.11459 3.91457 9.11459 5.20898V5.4694H15.8854V5.20898C15.8854 3.91457 14.8361 2.86523 13.5417 2.86523H11.4583ZM17.4479 5.4694V5.20898C17.4479 3.05162 15.699 1.30273 13.5417 1.30273H11.4583C9.30097 1.30273 7.55209 3.05162 7.55209 5.20898V5.4694H6.25C3.51734 5.4694 1.30209 7.68466 1.30209 10.4173V10.7671C1.30197 10.7748 1.30197 10.7824 1.30209 10.79V18.7507C1.30209 21.4833 3.51734 23.6986 6.25 23.6986H18.75C21.4827 23.6986 23.6979 21.4833 23.6979 18.7507V10.79C23.698 10.7824 23.698 10.7748 23.6979 10.7671V10.4173C23.6979 7.68466 21.4827 5.4694 18.75 5.4694H17.4479ZM6.25 7.0319C4.40636 7.0319 2.90692 8.50563 2.86547 10.3393C2.91964 10.3703 2.9799 10.4041 3.04611 10.4405C3.40822 10.6395 3.94744 10.9133 4.64151 11.2036C6.03074 11.7846 8.03246 12.428 10.4712 12.6721C10.9005 12.7151 11.2137 13.0979 11.1708 13.5273C11.1278 13.9566 10.7449 14.2698 10.3156 14.2268C7.69224 13.9642 5.53892 13.2725 4.03865 12.6451C3.58725 12.4563 3.19427 12.2731 2.86459 12.1086V18.7507C2.86459 20.6204 4.38029 22.1361 6.25 22.1361H18.75C20.6197 22.1361 22.1354 20.6204 22.1354 18.7507V12.1086C21.8057 12.2731 21.4127 12.4563 20.9614 12.6451C19.4611 13.2725 17.3078 13.9642 14.6844 14.2268C14.2551 14.2698 13.8722 13.9566 13.8292 13.5273C13.7863 13.0979 14.0995 12.7151 14.5288 12.6721C16.9675 12.428 18.9693 11.7846 20.3585 11.2036C21.0526 10.9133 21.5918 10.6395 21.9539 10.4405C22.0201 10.4042 22.0804 10.3703 22.1345 10.3393C22.0931 8.50563 20.5936 7.0319 18.75 7.0319H6.25Z" fill="#383838"/>
<path fill-rule="evenodd" clip-rule="evenodd" d="M11.1988 12.4071C11.198 12.4814 11.198 12.5662 11.198 12.6667V13.7396C11.198 14.0328 11.2006 14.2485 11.226 14.4316C11.2505 14.6075 11.2894 14.6931 11.3224 14.7397C11.3591 14.7915 11.5423 15.0104 12.5001 15.0104C13.4622 15.0104 13.6432 14.7894 13.6792 14.738C13.7123 14.6907 13.7511 14.6037 13.7752 14.4257C13.8003 14.2406 13.8022 14.0239 13.8022 13.7292V12.6667C13.8022 12.5662 13.8022 12.4814 13.8013 12.4071C13.727 12.4063 13.6422 12.4063 13.5418 12.4063H11.4584C11.358 12.4063 11.2732 12.4063 11.1988 12.4071ZM11.4242 10.8438C11.4356 10.8438 11.447 10.8438 11.4584 10.8438H13.5418C13.5532 10.8438 13.5646 10.8438 13.576 10.8438C13.8063 10.8437 14.0398 10.8437 14.2302 10.8648C14.4244 10.8864 14.7469 10.9441 15.0056 11.2028C15.2644 11.4615 15.322 11.784 15.3436 11.9782C15.3648 12.1687 15.3647 12.4021 15.3647 12.6325C15.3647 12.6439 15.3647 12.6553 15.3647 12.6667V13.7409C15.3647 14.0114 15.3647 14.3315 15.3236 14.6352C15.281 14.9503 15.1876 15.308 14.959 15.6344C14.4716 16.3304 13.6109 16.5729 12.5001 16.5729C11.3953 16.5729 10.5369 16.3335 10.0476 15.6432C9.81754 15.3186 9.72232 14.9622 9.67845 14.6469C9.63556 14.3387 9.63551 14.0141 9.63551 13.7396V12.6667C9.63551 12.6553 9.63551 12.6439 9.6355 12.6325C9.63545 12.4021 9.6354 12.1687 9.65656 11.9782C9.67814 11.784 9.73582 11.4615 9.99454 11.2028C10.2533 10.9441 10.5758 10.8864 10.7699 10.8648C10.9604 10.8437 11.1939 10.8437 11.4242 10.8438Z" fill="#383838"/>
</svg>
