<svg width="163" height="163" viewBox="0 0 163 163" fill="none" xmlns="http://www.w3.org/2000/svg">
<path d="M115.944 4H128C145.121 4 159 17.8792 159 35V47.0556M47.0556 4H35C17.8792 4 4 17.8792 4 35V47.0556M159 115.944V128C159 145.121 145.121 159 128 159H115.944M47.0556 159H35C17.8792 159 4 145.121 4 128V115.944" stroke="#28303F" stroke-opacity="0.08" stroke-width="7" stroke-linecap="round"/>
<path opacity="0.4" d="M32 72C32 60.9543 40.9543 52 52 52H112C123.046 52 132 60.9543 132 72V107C132 118.046 123.046 127 112 127H52C40.9543 127 32 118.046 32 107V72Z" fill="#28303F"/>
<path d="M97 89.5C97 97.7843 90.2843 104.5 82 104.5C73.7157 104.5 67 97.7843 67 89.5C67 81.2157 73.7157 74.5 82 74.5C90.2843 74.5 97 81.2157 97 89.5Z" fill="#28303F"/>
<path d="M64.0313 41.453L57 52H107L99.9687 41.453C98.114 38.671 94.9917 37 91.6482 37H72.3518C69.0083 37 65.886 38.671 64.0313 41.453Z" fill="#28303F"/>
</svg>
