<svg width="40" height="40" viewBox="0 0 40 40" fill="none" xmlns="http://www.w3.org/2000/svg">
<g clip-path="url(#clip0_876_4773)">
<path d="M28.3481 13H26.2543C25.799 13 25.3659 13.2187 25.0981 13.5937L18.0802 23.3259L14.9017 18.9152C14.6338 18.5446 14.2052 18.3214 13.7454 18.3214H11.6517C11.3615 18.3214 11.1918 18.6518 11.3615 18.8884L16.924 26.6027C17.0554 26.7861 17.2286 26.9355 17.4293 27.0386C17.63 27.1417 17.8524 27.1955 18.078 27.1955C18.3036 27.1955 18.526 27.1417 18.7267 27.0386C18.9274 26.9355 19.1006 26.7861 19.232 26.6027L28.6338 13.567C28.8079 13.3304 28.6383 13 28.3481 13Z" fill="#2AB679"/>
<path d="M20 0C8.95536 0 0 8.95536 0 20C0 31.0446 8.95536 40 20 40C31.0446 40 40 31.0446 40 20C40 8.95536 31.0446 0 20 0ZM20 36.6071C10.8304 36.6071 3.39286 29.1696 3.39286 20C3.39286 10.8304 10.8304 3.39286 20 3.39286C29.1696 3.39286 36.6071 10.8304 36.6071 20C36.6071 29.1696 29.1696 36.6071 20 36.6071Z" fill="#2AB679"/>
</g>
<defs>
<clipPath id="clip0_876_4773">
<rect width="40" height="40" fill="white"/>
</clipPath>
</defs>
</svg>
