<svg width="68" height="68" viewBox="0 0 68 68" fill="none" xmlns="http://www.w3.org/2000/svg">
<g clip-path="url(#clip0_621_3845)">
<path d="M33.9997 21.1733C29.1557 21.1733 25.2148 17.2324 25.2148 12.3884C25.2148 7.54447 29.1558 3.60352 33.9997 3.60352C38.8437 3.60352 42.7846 7.54447 42.7846 12.3884C42.7846 17.2324 38.8438 21.1733 33.9997 21.1733Z" fill="#3F8DFF"/>
<path d="M48.1669 42.3322H19.8325C18.6614 42.3322 17.7119 41.3827 17.7119 40.2116C17.7119 31.2304 25.0186 23.9238 33.9997 23.9238C42.9807 23.9238 50.2874 31.2304 50.2874 40.2116C50.2876 41.3829 49.3381 42.3322 48.1669 42.3322Z" fill="#3F8DFF"/>
<path d="M38.1142 64.1493L34.0002 61.9865L29.8862 64.1493C28.3336 64.9654 26.5127 63.6435 26.8094 61.9137L27.5951 57.3328L24.2669 54.0886C23.0109 52.8642 23.7054 50.7239 25.4422 50.4714L30.0418 49.8029L32.0988 45.6352C32.875 44.0623 35.1253 44.0612 35.902 45.6352L37.959 49.8029L42.5586 50.4714C44.2943 50.7236 44.9906 52.8634 43.7338 54.0886L40.4057 57.3328L41.1914 61.9137C41.4901 63.6567 39.6542 64.959 38.1142 64.1493Z" fill="#0066FA"/>
<path d="M14.488 64.1489L10.374 61.9861L6.25999 64.1489C4.70741 64.9651 2.88641 63.6432 3.18312 61.9134L3.96884 57.3325L0.640946 54.0884C-0.615064 52.8641 0.0794137 50.7237 1.81621 50.4713L6.41578 49.8029L8.47265 45.6351C9.24894 44.0622 11.4992 44.0613 12.2759 45.6351L14.3329 49.8029L18.9325 50.4713C20.6682 50.7236 21.3644 52.8633 20.1077 54.0885L16.7793 57.3327L17.565 61.9137C17.862 63.6446 16.0395 64.9647 14.488 64.1489Z" fill="#0066FA"/>
<path d="M61.7391 64.1491L57.6251 61.9862L53.5111 64.1491C51.9585 64.9652 50.1375 63.6433 50.4342 61.9136L51.2199 57.3326L47.8919 54.0884C46.6359 52.8641 47.3304 50.7237 49.0672 50.4713L53.6668 49.8029L55.7236 45.6351C56.4999 44.0622 58.7502 44.0613 59.5269 45.6351L61.5839 49.8029L66.1834 50.4713C67.9192 50.7236 68.6154 52.8633 67.3587 54.0885L64.0305 57.3327L64.8163 61.9137C65.113 63.6448 63.2905 64.9648 61.7391 64.1491Z" fill="#0066FA"/>
<path d="M42.7845 12.3884C42.7845 7.54447 38.8438 3.60365 34 3.60352V21.1736C38.8437 21.173 42.7845 17.2322 42.7845 12.3884Z" fill="#0066FA"/>
<path d="M34 23.9238V42.3322H48.1667C49.3379 42.3322 50.2874 41.3827 50.2874 40.2116C50.2874 31.2308 42.9807 23.9241 34 23.9238Z" fill="#0066FA"/>
<path d="M42.5582 50.4715L37.9586 49.8031L35.9016 45.6353C35.5443 44.9115 34.8071 44.4531 34 44.4531V61.9863L38.114 64.149C39.658 64.9607 41.4894 63.654 41.1909 61.9135L40.4052 57.3325L43.7333 54.0883C44.9895 52.8642 44.295 50.7239 42.5582 50.4715Z" fill="#0066FA"/>
</g>
<defs>
<clipPath id="clip0_621_3845">
<rect width="68" height="68" fill="white"/>
</clipPath>
</defs>
</svg>
