<svg width="21" height="20" viewBox="0 0 21 20" fill="none" xmlns="http://www.w3.org/2000/svg">
<path fill-rule="evenodd" clip-rule="evenodd" d="M12.4443 0.469689C12.6399 0.274051 12.9274 0.20201 13.1922 0.282263C17.276 1.52004 20.25 5.31322 20.25 9.80299C20.25 15.2966 15.7966 19.75 10.303 19.75C5.81322 19.75 2.02004 16.776 0.782263 12.6922C0.70201 12.4274 0.774051 12.1399 0.969689 11.9443C1.16533 11.7487 1.45279 11.6766 1.71757 11.7569C2.49328 11.992 3.31699 12.1187 4.17165 12.1187C8.83681 12.1187 12.6187 8.33681 12.6187 3.67165C12.6187 2.81699 12.492 1.99328 12.2569 1.21757C12.1766 0.952786 12.2487 0.665328 12.4443 0.469689ZM14.0122 2.21154C14.0823 2.68836 14.1187 3.17593 14.1187 3.67165C14.1187 9.16524 9.66524 13.6187 4.17165 13.6187C3.67593 13.6187 3.18836 13.5823 2.71154 13.5122C4.08526 16.3184 6.9693 18.25 10.303 18.25C14.9682 18.25 18.75 14.4682 18.75 9.80299C18.75 6.4693 16.8184 3.58526 14.0122 2.21154Z" fill="#2AB579"/>
</svg>
