<svg width="19" height="19" viewBox="0 0 19 19" fill="none" xmlns="http://www.w3.org/2000/svg">
<path fill-rule="evenodd" clip-rule="evenodd" d="M9.375 1.30814C4.9198 1.30814 1.30814 4.9198 1.30814 9.375C1.30814 13.8302 4.9198 17.4419 9.375 17.4419C13.8302 17.4419 17.4419 13.8302 17.4419 9.375C17.4419 7.38285 16.7197 5.55937 15.523 4.15203L13.9744 5.70064C14.7799 6.70769 15.2616 7.98509 15.2616 9.375C15.2616 12.6261 12.6261 15.2616 9.375 15.2616C6.12391 15.2616 3.48837 12.6261 3.48837 9.375C3.48837 6.12391 6.12391 3.48837 9.375 3.48837C10.7649 3.48837 12.0423 3.97008 13.0494 4.77565L14.598 3.22704C13.1906 2.03027 11.3671 1.30814 9.375 1.30814ZM15.5256 2.29943C13.8793 0.867177 11.7284 0 9.375 0C4.19733 0 0 4.19733 0 9.375C0 14.5527 4.19733 18.75 9.375 18.75C14.5527 18.75 18.75 14.5527 18.75 9.375C18.75 7.02157 17.8828 4.87068 16.4506 3.22443L18.5584 1.11657C18.8139 0.861137 18.8139 0.447003 18.5584 0.191573C18.303 -0.0638575 17.8889 -0.0638575 17.6334 0.191573L15.5256 2.29943ZM12.117 5.70803C11.3526 5.13558 10.4034 4.79651 9.375 4.79651C6.84637 4.79651 4.79651 6.84637 4.79651 9.375C4.79651 11.9036 6.84637 13.9535 9.375 13.9535C11.9036 13.9535 13.9535 11.9036 13.9535 9.375C13.9535 8.34658 13.6144 7.39736 13.042 6.63303L9.8375 9.8375C9.58207 10.0929 9.16793 10.0929 8.9125 9.8375C8.65707 9.58207 8.65707 9.16793 8.9125 8.9125L12.117 5.70803Z" fill="#383838"/>
</svg>
