<svg width="28" height="28" viewBox="0 0 28 28" fill="none" xmlns="http://www.w3.org/2000/svg">
<circle cx="14" cy="14" r="14" fill="#2AB679"/>
<path fill-rule="evenodd" clip-rule="evenodd" d="M12.6542 8.96155C12.3862 8.96155 12.1361 9.09545 11.9874 9.31837L11.086 10.6706C10.9968 10.8043 10.8467 10.8847 10.686 10.8847H10.0449C8.89431 10.8847 7.96155 11.8174 7.96155 12.968V17.4553C7.96155 18.6059 8.89431 19.5386 10.0449 19.5386H17.7373C18.8879 19.5386 19.8207 18.6059 19.8207 17.4553V12.968C19.8207 11.8174 18.8879 10.8847 17.7373 10.8847H17.0963C16.9356 10.8847 16.7854 10.8043 16.6963 10.6706L15.7948 9.31837C15.6462 9.09545 15.396 8.96155 15.1281 8.96155H12.6542ZM11.1874 8.78499C11.5143 8.29457 12.0648 8 12.6542 8H15.1281C15.7175 8 16.2679 8.29457 16.5949 8.78499L17.3536 9.9231H17.7373C19.419 9.9231 20.7823 11.2864 20.7823 12.968V17.4553C20.7823 19.1369 19.419 20.5002 17.7373 20.5002H10.0449C8.36326 20.5002 7 19.1369 7 17.4553V12.968C7 11.2864 8.36326 9.9231 10.0449 9.9231H10.4286L11.1874 8.78499ZM13.8911 13.7693C13.0946 13.7693 12.4488 14.4151 12.4488 15.2116C12.4488 16.0082 13.0946 16.654 13.8911 16.654C14.6877 16.654 15.3335 16.0082 15.3335 15.2116C15.3335 14.4151 14.6877 13.7693 13.8911 13.7693ZM11.4872 15.2116C11.4872 13.884 12.5635 12.8078 13.8911 12.8078C15.2188 12.8078 16.295 13.884 16.295 15.2116C16.295 16.5393 15.2188 17.6155 13.8911 17.6155C12.5635 17.6155 11.4872 16.5393 11.4872 15.2116Z" fill="white"/>
<circle cx="13.891" cy="10.4067" r="0.641035" fill="white"/>
</svg>
