<svg width="18" height="12" viewBox="0 0 18 12" fill="none" xmlns="http://www.w3.org/2000/svg">
<path d="M15.8477 4.38982C16.7174 5.30488 16.7174 6.69512 15.8477 7.61018C14.3809 9.1535 11.8616 11.25 9 11.25C6.13836 11.25 3.61912 9.1535 2.15228 7.61018C1.28257 6.69512 1.28257 5.30488 2.15228 4.38982C3.61912 2.8465 6.13836 0.75 9 0.75C11.8616 0.75 14.3809 2.8465 15.8477 4.38982Z" stroke="#C3C3C3" stroke-width="1.5"/>
<path d="M11.25 6C11.25 7.24264 10.2426 8.25 9 8.25C7.75736 8.25 6.75 7.24264 6.75 6C6.75 4.75736 7.75736 3.75 9 3.75C10.2426 3.75 11.25 4.75736 11.25 6Z" stroke="#C3C3C3" stroke-width="1.5"/>
</svg>
