<svg width="68" height="68" viewBox="0 0 68 68" fill="none" xmlns="http://www.w3.org/2000/svg">
<g clip-path="url(#clip0_621_3884)">
<path d="M55.663 35.3359C51.5043 35.3359 48.1211 38.7193 48.1211 42.8779C48.1211 47.0366 51.5043 50.42 55.663 50.42V35.3359Z" fill="#3F8DFF"/>
<path d="M55.6639 52.916C48.8614 52.916 43.3271 58.4501 43.3271 65.2526V68.0001H68.0004V65.2526C68.0004 58.4501 62.4663 52.916 55.6639 52.916Z" fill="#3F8DFF"/>
<path d="M55.663 15.084V0C51.5043 0 48.1211 3.38338 48.1211 7.54209C48.121 11.7007 51.5043 15.084 55.663 15.084Z" fill="#3F8DFF"/>
<path d="M55.6637 17.5801C48.8612 17.5801 43.3271 23.1142 43.3271 29.9167V32.6641H68.0003V29.9167C68.0003 23.1143 62.4662 17.5801 55.6637 17.5801Z" fill="#3F8DFF"/>
<path d="M12.3369 32.7522V17.668C8.17816 17.668 4.79492 21.0513 4.79492 25.2101C4.79492 29.3688 8.17816 32.7522 12.3369 32.7522Z" fill="#3F8DFF"/>
<path d="M63.2052 42.8779C63.2052 38.7192 59.8218 35.3359 55.6631 35.3359V50.42C59.8218 50.42 63.2052 47.0366 63.2052 42.8779Z" fill="#0066FA"/>
<path d="M63.2052 7.54209C63.2052 3.38338 59.8218 0 55.6631 0V15.084C59.8218 15.084 63.2052 11.7007 63.2052 7.54209Z" fill="#0066FA"/>
<path d="M19.879 25.2101C19.879 21.0513 16.4956 17.668 12.3369 17.668V32.752C16.4956 32.7522 19.879 29.3688 19.879 25.2101Z" fill="#0066FA"/>
<path d="M12.3366 35.248C5.5341 35.248 0 40.7823 0 47.5848V50.3322H24.6731V47.5848C24.6731 40.7823 19.1389 35.248 12.3366 35.248Z" fill="#3F8DFF"/>
<path d="M45.2046 54.4148V48.9198H36.7474V19.0789H45.2046V13.584H31.2524V31.2519H22.3604V36.7468H31.2524V54.4148H45.2046Z" fill="#2B2F86"/>
</g>
<defs>
<clipPath id="clip0_621_3884">
<rect width="68" height="68" fill="white"/>
</clipPath>
</defs>
</svg>
