<svg width="26" height="25" viewBox="0 0 26 25" fill="none" xmlns="http://www.w3.org/2000/svg">
<path fill-rule="evenodd" clip-rule="evenodd" d="M13 1.74419C7.05973 1.74419 2.24419 6.55973 2.24419 12.5C2.24419 18.4403 7.05973 23.2558 13 23.2558C18.9403 23.2558 23.7558 18.4403 23.7558 12.5C23.7558 9.84381 22.793 7.4125 21.1973 5.53604L19.1325 7.60085C20.2066 8.94359 20.8488 10.6468 20.8488 12.5C20.8488 16.8348 17.3348 20.3488 13 20.3488C8.66521 20.3488 5.15116 16.8348 5.15116 12.5C5.15116 8.16521 8.66521 4.65116 13 4.65116C14.8532 4.65116 16.5564 5.29344 17.8991 6.36753L19.964 4.30272C18.0875 2.70702 15.6562 1.74419 13 1.74419ZM21.2008 3.06591C19.0058 1.15624 16.1379 0 13 0C6.09644 0 0.5 5.59644 0.5 12.5C0.5 19.4036 6.09644 25 13 25C19.9036 25 25.5 19.4036 25.5 12.5C25.5 9.36209 24.3438 6.49423 22.4341 4.29923L25.2446 1.48876C25.5851 1.14818 25.5851 0.596004 25.2446 0.25543C24.904 -0.0851434 24.3518 -0.0851434 24.0112 0.25543L21.2008 3.06591ZM16.656 7.61071C15.6369 6.84745 14.3712 6.39535 13 6.39535C9.62849 6.39535 6.89535 9.12849 6.89535 12.5C6.89535 15.8715 9.62849 18.6047 13 18.6047C16.3715 18.6047 19.1047 15.8715 19.1047 12.5C19.1047 11.1288 18.6526 9.86315 17.8893 8.84404L13.6167 13.1167C13.2761 13.4572 12.7239 13.4572 12.3833 13.1167C12.0428 12.7761 12.0428 12.2239 12.3833 11.8833L16.656 7.61071Z" fill="#1B1B1B"/>
</svg>
