<svg width="20" height="20" viewBox="0 0 25 25" fill="none" xmlns="http://www.w3.org/2000/svg">
<path fill-rule="evenodd" clip-rule="evenodd" d="M13.5392 12.7387L24.7353 1.54257C25.0882 1.18968 25.0882 0.617546 24.7353 0.264663C24.3825 -0.0882209 23.8103 -0.0882209 23.4574 0.264663L19.9048 3.81734C17.7953 2.00138 15.05 0.903615 12.0482 0.903615C5.39416 0.903615 0 6.29777 0 12.9518C0 19.6058 5.39416 25 12.0482 25C18.7022 25 24.0964 19.6058 24.0964 12.9518C24.0964 10.5686 23.4044 8.34706 22.2105 6.47704L19.3403 9.34726C19.8783 10.4336 20.1807 11.6574 20.1807 12.9518C20.1807 17.4433 16.5397 21.0843 12.0482 21.0843C7.55672 21.0843 3.91566 17.4433 3.91566 12.9518C3.91566 8.46034 7.55672 4.81928 12.0482 4.81928C13.9684 4.81928 15.7331 5.48477 17.1244 6.59768L15.8363 7.8858C14.7804 7.09494 13.469 6.62651 12.0482 6.62651C8.55483 6.62651 5.72289 9.45844 5.72289 12.9518C5.72289 16.4452 8.55483 19.2771 12.0482 19.2771C15.5416 19.2771 18.3735 16.4452 18.3735 12.9518C18.3735 12.1659 18.2302 11.4135 17.9682 10.7193L15.3378 13.3497C15.1412 14.992 13.7434 16.2651 12.0482 16.2651C10.2183 16.2651 8.73494 14.7817 8.73494 12.9518C8.73494 11.1219 10.2183 9.63855 12.0482 9.63855C12.6348 9.63855 13.1858 9.79099 13.6637 10.0584L12.2613 11.4608C12.1917 11.4509 12.1205 11.4458 12.0482 11.4458C11.2164 11.4458 10.5422 12.1201 10.5422 12.9518C10.5422 13.7836 11.2164 14.4578 12.0482 14.4578C12.8799 14.4578 13.5542 13.7836 13.5542 12.9518C13.5542 12.8795 13.5491 12.8083 13.5392 12.7387Z" fill="#1B1B1B"/>
</svg>
