<svg width="155" height="161" viewBox="0 0 155 161" fill="none" xmlns="http://www.w3.org/2000/svg">
<g clip-path="url(#clip0_1_1082)">
<path d="M58.6481 139C54.5503 139 50.3875 138.308 46.3331 136.86C27.3402 130.074 17.4101 109.133 24.2398 90.2025C27.5353 81.0179 34.2349 73.6919 43.0592 69.521C51.9052 65.3501 61.8352 64.8747 71.0498 68.1595C77.9011 70.6015 83.7984 74.9669 88.113 80.7802C88.4599 81.2556 88.3732 81.9256 87.8962 82.2713C87.4192 82.6171 86.7471 82.5307 86.4002 82.0552C82.3458 76.5877 76.7954 72.4817 70.3343 70.1693C61.6618 67.079 52.3171 67.5328 43.9915 71.4444C35.6658 75.3559 29.3782 82.2713 26.2778 90.9156C19.8601 108.744 29.2048 128.432 47.0702 134.829C64.9573 141.225 84.7091 131.911 91.1267 114.104C93.4683 107.599 93.7935 100.64 92.0807 93.9844C91.9289 93.4009 92.2758 92.8174 92.8612 92.6877C93.425 92.5364 94.032 92.8822 94.1621 93.4657C95.9834 100.554 95.6365 107.945 93.1648 114.839C87.8095 129.729 73.6949 139.021 58.6697 139.021L58.6481 139Z" fill="#434343"/>
<path d="M58.7131 161C52.0352 161 45.3357 159.854 38.8746 157.542C24.1313 152.269 12.315 141.593 5.63713 127.482C-1.06241 113.37 -1.82125 97.4859 3.469 82.7906C14.3747 52.4491 48.0459 36.6084 78.4648 47.5002C90.9533 51.9737 101.274 60.229 108.32 71.4017C108.645 71.8988 108.493 72.5687 107.973 72.8713C107.474 73.1738 106.802 73.0441 106.499 72.5255C99.7125 61.7633 89.7825 53.8106 77.7493 49.51C48.4144 39.0288 16.0008 54.286 5.48536 83.5037C0.390244 97.6588 1.12741 112.959 7.58845 126.552C14.0278 140.145 25.4105 150.432 39.6118 155.511C53.8131 160.589 69.1635 159.854 82.8011 153.414C96.4386 146.996 106.759 135.65 111.854 121.495C116.147 109.545 116.32 96.8808 112.331 84.8652C112.136 84.3033 112.461 83.6982 113.025 83.5037C113.589 83.3092 114.196 83.6334 114.391 84.1953C118.532 96.6647 118.358 109.826 113.892 122.209C108.602 136.904 97.8913 148.682 83.7334 155.338C75.7763 159.076 67.2772 160.957 58.7348 160.957L58.7131 161Z" fill="#434343"/>
<path d="M44.1649 97.3348C47.0486 89.3388 55.8729 85.1896 63.8733 88.0638C71.8954 90.938 76.0582 99.7336 73.1746 107.708C70.291 115.704 61.4667 119.853 53.4662 116.979C45.4441 114.105 41.2813 105.309 44.1649 97.3348Z" fill="#434343"/>
<path d="M58.6914 118.968C56.8052 118.968 54.9406 118.644 53.1193 117.995C48.9782 116.504 45.6609 113.5 43.7747 109.545C41.8884 105.569 41.6716 101.117 43.1676 96.9896C44.6636 92.8619 47.6773 89.5555 51.645 87.6754C55.6344 85.7952 60.1007 85.5791 64.2635 87.0703C68.4047 88.5614 71.7219 91.5653 73.6082 95.5201C75.4945 99.4964 75.7113 103.948 74.2153 108.076C72.7193 112.204 69.7056 115.51 65.7379 117.39C63.5047 118.449 61.1197 118.968 58.7131 118.968H58.6914ZM58.6914 88.2156C56.61 88.2156 54.5286 88.6695 52.5773 89.5987C49.1083 91.2195 46.4848 94.1154 45.2056 97.7027C43.9048 101.29 44.0999 105.18 45.726 108.638C47.3521 112.095 50.2574 114.71 53.8565 115.985C57.4556 117.282 61.3582 117.088 64.8273 115.467C68.2963 113.846 70.9197 110.95 72.1989 107.363C73.4998 103.775 73.3047 99.8854 71.6786 96.4277C70.0525 92.97 67.1472 90.3551 63.5481 89.0801C61.9653 88.5182 60.3392 88.2372 58.6914 88.2372V88.2156Z" fill="#434343"/>
<path d="M58.6914 103.58C58.2794 103.58 57.9109 103.364 57.7157 102.975C57.4556 102.435 57.6941 101.808 58.2361 101.549L139.866 63.1248C140.408 62.8654 141.037 63.1031 141.297 63.6434C141.558 64.1837 141.319 64.8104 140.777 65.0697L59.1467 103.494C58.9949 103.558 58.8432 103.602 58.6914 103.602V103.58Z" fill="#434343"/>
<path d="M120.006 73.8667L140.408 64.2715L153.916 70.6899L133.514 80.3067L120.006 73.8667Z" fill="#434343"/>
<path d="M133.514 81.3651C133.362 81.3651 133.189 81.3219 133.058 81.2571L119.529 74.8171C119.161 74.6442 118.922 74.2552 118.922 73.8446C118.922 73.434 119.161 73.045 119.529 72.8721L139.931 63.2769C140.213 63.1473 140.56 63.1473 140.864 63.2769L154.393 69.7169C154.761 69.8898 155 70.2788 155 70.6894C155 71.1 154.761 71.489 154.393 71.6619L133.991 81.2571C133.839 81.3219 133.687 81.3651 133.535 81.3651H133.514ZM122.5 73.8662L133.514 79.096L151.401 70.6678L140.387 65.438L122.5 73.8662Z" fill="#434343"/>
<path d="M119.92 73.6926L140.322 64.0974L144.008 49.7695L123.605 59.3647L119.92 73.6926Z" fill="#434343"/>
<path d="M119.92 74.7738C119.681 74.7738 119.421 74.6874 119.226 74.5361C118.901 74.2768 118.77 73.8445 118.879 73.4339L122.565 59.106C122.651 58.8035 122.868 58.5441 123.15 58.3929L143.552 48.7977C143.921 48.6248 144.376 48.668 144.701 48.949C145.027 49.2083 145.157 49.6405 145.048 50.0511L141.362 64.379C141.276 64.6816 141.059 64.9409 140.777 65.0922L120.375 74.6874C120.223 74.7522 120.071 74.7954 119.92 74.7954V74.7738ZM124.516 60.1217L121.524 71.7483L139.389 63.3417L142.381 51.7152L124.516 60.1217Z" fill="#434343"/>
<path d="M112.374 25.0684C112.223 25.0684 112.049 25.0252 111.897 24.9604C102.444 20.3141 91.8856 17.656 81.3268 17.2886C80.7414 17.2886 80.2644 16.7699 80.2861 16.1864C80.2861 15.6029 80.7847 15.1059 81.3918 15.1491C92.2325 15.5165 103.095 18.2611 112.83 23.037C113.372 23.2964 113.589 23.9447 113.328 24.4633C113.133 24.8523 112.765 25.0684 112.353 25.0684H112.374Z" fill="#434343"/>
<path d="M116.797 10.0484C116.646 10.0484 116.494 10.0052 116.342 9.94038C109.859 6.85004 103.117 4.21353 96.2652 2.09568C95.7015 1.9228 95.3763 1.31769 95.5497 0.755815C95.7232 0.193936 96.3303 -0.130225 96.894 0.0426608C103.854 2.18212 110.705 4.86186 117.274 7.99541C117.816 8.25474 118.033 8.88145 117.773 9.42172C117.578 9.81072 117.209 10.0268 116.797 10.0268V10.0484Z" fill="#434343"/>
</g>
<defs>
<clipPath id="clip0_1_1082">
<rect width="155" height="161" fill="white"/>
</clipPath>
</defs>
</svg>
