<svg width="68" height="68" viewBox="0 0 68 68" fill="none" xmlns="http://www.w3.org/2000/svg">
<path d="M32.9697 67.9999C51.1784 67.9999 65.9394 53.2389 65.9394 35.0302C65.9394 16.8216 51.1784 2.06055 32.9697 2.06055C14.761 2.06055 0 16.8216 0 35.0302C0 53.2389 14.761 67.9999 32.9697 67.9999Z" fill="#0052B4"/>
<path d="M32.9697 2.06055C51.1783 2.06055 65.9394 16.8215 65.9394 35.0302C65.9394 53.239 51.1783 67.9999 32.9697 67.9999" fill="#006DF0"/>
<path d="M32.9695 59.7573C46.626 59.7573 57.6967 48.6865 57.6967 35.03C57.6967 21.3735 46.626 10.3027 32.9695 10.3027C19.313 10.3027 8.24219 21.3735 8.24219 35.03C8.24219 48.6865 19.313 59.7573 32.9695 59.7573Z" fill="#E6E6F3"/>
<path d="M32.9692 51.5146C42.0736 51.5146 49.4541 44.1341 49.4541 35.0298C49.4541 25.9254 42.0736 18.5449 32.9692 18.5449C23.8649 18.5449 16.4844 25.9254 16.4844 35.0298C16.4844 44.1341 23.8649 51.5146 32.9692 51.5146Z" fill="#0052B4"/>
<path d="M32.9697 18.5449C42.0741 18.5449 49.4546 25.9254 49.4546 35.0298C49.4546 44.1341 42.0741 51.5146 32.9697 51.5146" fill="#006DF0"/>
<path d="M32.97 43.272C37.5221 43.272 41.2124 39.5817 41.2124 35.0295C41.2124 30.4774 37.5221 26.7871 32.97 26.7871C28.4178 26.7871 24.7275 30.4774 24.7275 35.0295C24.7275 39.5817 28.4178 43.272 32.97 43.272Z" fill="#E6E6F3"/>
<path d="M49.7864 13.8418L48.1316 15.4967L42.2341 21.3941L36.1883 27.4399L31.5731 32.0553C30.3662 33.2622 30.3662 35.2193 31.5731 36.4265C32.78 37.6336 34.7372 37.6336 35.9445 36.4265L40.5599 31.8113L46.6057 25.7657L52.5029 19.8682L54.158 18.2134L49.7864 13.8418Z" fill="white"/>
<path d="M49.786 13.8421L49.0576 18.9419L57.7999 10.1994L59.2572 0L51.499 7.75798L50.5145 8.74253L49.786 13.8421Z" fill="#FF5023"/>
<path d="M49.0576 18.9416L54.1574 18.2131L59.257 17.4845L60.2416 16.5L67.9995 8.74219L57.7999 10.199L49.0576 18.9416Z" fill="#FF9811"/>
</svg>
