<svg width="23" height="22" viewBox="0 0 23 22" fill="none" xmlns="http://www.w3.org/2000/svg">
<path fill-rule="evenodd" clip-rule="evenodd" d="M11.5 1.75C6.39137 1.75 2.25 5.89137 2.25 11C2.25 16.1086 6.39137 20.25 11.5 20.25C16.6086 20.25 20.75 16.1086 20.75 11C20.75 5.89137 16.6086 1.75 11.5 1.75ZM0.75 11C0.75 5.06294 5.56294 0.25 11.5 0.25C17.4371 0.25 22.25 5.06294 22.25 11C22.25 16.9371 17.4371 21.75 11.5 21.75C5.56294 21.75 0.75 16.9371 0.75 11ZM11.5 6.75C10.8096 6.75 10.25 7.30964 10.25 8C10.25 8.41421 9.91421 8.75 9.5 8.75C9.08579 8.75 8.75 8.41421 8.75 8C8.75 6.48122 9.98122 5.25 11.5 5.25C13.0188 5.25 14.25 6.48122 14.25 8C14.25 8.54634 14.0899 9.05757 13.8138 9.48663C13.6409 9.75537 13.4387 10.0119 13.2523 10.2436C13.2182 10.286 13.1847 10.3275 13.1518 10.3682C12.9971 10.5597 12.8551 10.7354 12.7239 10.9158C12.4003 11.3605 12.25 11.6947 12.25 12V12.5C12.25 12.9142 11.9142 13.25 11.5 13.25C11.0858 13.25 10.75 12.9142 10.75 12.5V12C10.75 11.2007 11.1424 10.5398 11.511 10.0333C11.6667 9.81923 11.8373 9.60815 11.9925 9.41621C12.0236 9.37776 12.054 9.34007 12.0836 9.30329C12.2688 9.07313 12.4265 8.87065 12.5524 8.67495C12.6774 8.48068 12.75 8.24996 12.75 8C12.75 7.30964 12.1904 6.75 11.5 6.75ZM11.5 14.25C11.9142 14.25 12.25 14.5858 12.25 15V16C12.25 16.4142 11.9142 16.75 11.5 16.75C11.0858 16.75 10.75 16.4142 10.75 16V15C10.75 14.5858 11.0858 14.25 11.5 14.25Z" fill="#2AB579"/>
</svg>
