<svg width="23" height="25" viewBox="0 0 23 25" fill="none" xmlns="http://www.w3.org/2000/svg">
<path fill-rule="evenodd" clip-rule="evenodd" d="M23 10.1879V19.9586C23 22.7429 20.7117 25 17.8889 25H5.11111C2.28832 25 0 22.7429 0 19.9586V10.1879C0 8.67422 0.689546 7.24062 1.87816 6.28315L8.26704 1.13668C10.1485 -0.378893 12.8515 -0.378896 14.733 1.13668L21.1218 6.28315C22.3105 7.24062 23 8.67422 23 10.1879ZM8.94444 19.0625C8.41517 19.0625 7.98611 19.4822 7.98611 20C7.98611 20.5178 8.41517 20.9375 8.94444 20.9375H14.0556C14.5848 20.9375 15.0139 20.5178 15.0139 20C15.0139 19.4822 14.5848 19.0625 14.0556 19.0625H8.94444Z" fill="#1B1B1B"/>
</svg>
