<svg width="38" height="23" viewBox="0 0 38 23" fill="none" xmlns="http://www.w3.org/2000/svg">
<path d="M18.3009 0.666016V22.4808H14.028V13.1986H4.90229V22.4808H0.629395V0.666016H4.90229V9.63572H14.028V0.666016H18.3009Z" fill="#1B1B1B"/>
<path d="M32.4258 22.4808L27.7256 13.9799H25.7112V22.4808H21.4383V0.666016H29.4348C31.0829 0.666016 32.4868 0.968131 33.6466 1.57236C34.8064 2.15576 35.6712 2.95793 36.2409 3.97887C36.8309 4.97897 37.126 6.10409 37.126 7.35423C37.126 8.79188 36.719 10.0941 35.9051 11.2609C35.0913 12.4068 33.8806 13.1986 32.2732 13.6361L37.3701 22.4808H32.4258ZM25.7112 10.6983H29.2821C30.4419 10.6983 31.3067 10.417 31.8764 9.85449C32.4461 9.27109 32.731 8.46893 32.731 7.44798C32.731 6.44788 32.4461 5.67696 31.8764 5.13524C31.3067 4.57268 30.4419 4.2914 29.2821 4.2914H25.7112V10.6983Z" fill="#1B1B1B"/>
</svg>
