<svg width="40" height="40" viewBox="0 0 40 40" fill="none" xmlns="http://www.w3.org/2000/svg">
<g clip-path="url(#clip0_550_3193)">
<g filter="url(#filter0_d_550_3193)">
<circle cx="20" cy="20" r="20" fill="#F1F2FF"/>
</g>
<path opacity="0.4" d="M17.9292 10.8129C18.7763 9.0285 21.2236 9.0285 22.0707 10.8129L23.5346 13.8969C23.8709 14.6055 24.5211 15.0966 25.2732 15.2103L28.5466 15.7048C30.4407 15.991 31.1969 18.411 29.8264 19.8L27.4578 22.2005C26.9135 22.7521 26.6652 23.5468 26.7936 24.3256L27.3528 27.7152C27.6763 29.6765 25.6964 31.1721 24.0023 30.2461L21.0745 28.6458C20.4018 28.2781 19.5981 28.2781 18.9254 28.6458L15.9976 30.2461C14.3035 31.1721 12.3236 29.6765 12.6471 27.7152L13.2063 24.3256C13.3347 23.5468 13.0864 22.7521 12.5421 22.2005L10.1735 19.8C8.80297 18.411 9.55924 15.991 11.4533 15.7048L14.7267 15.2103C15.4788 15.0966 16.129 14.6055 16.4653 13.8969L17.9292 10.8129Z" fill="#525252"/>
</g>
<defs>
<filter id="filter0_d_550_3193" x="-7" y="0" width="56" height="63" filterUnits="userSpaceOnUse" color-interpolation-filters="sRGB">
<feFlood flood-opacity="0" result="BackgroundImageFix"/>
<feColorMatrix in="SourceAlpha" type="matrix" values="0 0 0 0 0 0 0 0 0 0 0 0 0 0 0 0 0 0 127 0" result="hardAlpha"/>
<feMorphology radius="12" operator="erode" in="SourceAlpha" result="effect1_dropShadow_550_3193"/>
<feOffset dx="1" dy="15"/>
<feGaussianBlur stdDeviation="10"/>
<feComposite in2="hardAlpha" operator="out"/>
<feColorMatrix type="matrix" values="0 0 0 0 0 0 0 0 0 0 0 0 0 0 0 0 0 0 0.25 0"/>
<feBlend mode="normal" in2="BackgroundImageFix" result="effect1_dropShadow_550_3193"/>
<feBlend mode="normal" in="SourceGraphic" in2="effect1_dropShadow_550_3193" result="shape"/>
</filter>
<clipPath id="clip0_550_3193">
<rect width="40" height="40" fill="white"/>
</clipPath>
</defs>
</svg>
