<svg width="24" height="25" viewBox="0 0 24 25" fill="none" xmlns="http://www.w3.org/2000/svg">
<path fill-rule="evenodd" clip-rule="evenodd" d="M17.4697 8.96967C17.7626 8.67678 18.2374 8.67678 18.5303 8.96967L21.5303 11.9697C21.8232 12.2626 21.8232 12.7374 21.5303 13.0303L18.5303 16.0303C18.2374 16.3232 17.7626 16.3232 17.4697 16.0303C17.1768 15.7374 17.1768 15.2626 17.4697 14.9697L19.1893 13.25H9C8.58579 13.25 8.25 12.9142 8.25 12.5C8.25 12.0858 8.58579 11.75 9 11.75H19.1893L17.4697 10.0303C17.1768 9.73744 17.1768 9.26256 17.4697 8.96967Z" fill="#383838"/>
<path fill-rule="evenodd" clip-rule="evenodd" d="M2.25 7.5C2.25 4.87665 4.37665 2.75 7 2.75H11C13.6234 2.75 15.75 4.87665 15.75 7.5V8C15.75 8.41421 15.4142 8.75 15 8.75C14.5858 8.75 14.25 8.41421 14.25 8V7.5C14.25 5.70507 12.7949 4.25 11 4.25H7C5.20507 4.25 3.75 5.70507 3.75 7.5V17.5C3.75 19.2949 5.20507 20.75 7 20.75H11C12.7949 20.75 14.25 19.2949 14.25 17.5V17C14.25 16.5858 14.5858 16.25 15 16.25C15.4142 16.25 15.75 16.5858 15.75 17V17.5C15.75 20.1234 13.6234 22.25 11 22.25H7C4.37665 22.25 2.25 20.1234 2.25 17.5V7.5Z" fill="#383838"/>
</svg>
