<svg width="28" height="35" viewBox="0 0 28 35" fill="none" xmlns="http://www.w3.org/2000/svg">
<path opacity="0.4" d="M22.2082 3.41667V12.8125H5.12488V3.41667C5.12488 1.52969 6.65457 0 8.54154 0H18.7915C20.6785 0 22.2082 1.52969 22.2082 3.41667Z" fill="#1B1B1B"/>
<path fill-rule="evenodd" clip-rule="evenodd" d="M13.6667 34.1673C21.2146 34.1673 27.3333 28.0485 27.3333 20.5007C27.3333 12.9528 21.2146 6.83398 13.6667 6.83398C6.11877 6.83398 0 12.9528 0 20.5007C0 28.0485 6.11877 34.1673 13.6667 34.1673ZM15.0108 14.5369C14.4609 13.3785 12.8722 13.3785 12.3223 14.5369L11.372 16.5389C11.1537 16.9989 10.7316 17.3178 10.2433 17.3915L8.11835 17.7126C6.88881 17.8983 6.39786 19.4693 7.28756 20.371L8.82521 21.9293C9.17851 22.2874 9.33973 22.8033 9.25633 23.3089L8.89334 25.5093C8.68331 26.7825 9.96863 27.7534 11.0684 27.1523L12.969 26.1134C13.4057 25.8747 13.9274 25.8747 14.3641 26.1134L16.2648 27.1523C17.3645 27.7534 18.6498 26.7825 18.4398 25.5093L18.0768 23.3089C17.9934 22.8033 18.1546 22.2874 18.5079 21.9293L20.0456 20.371C20.9353 19.4693 20.4443 17.8983 19.2148 17.7126L17.0898 17.3915C16.6016 17.3178 16.1795 16.9989 15.9611 16.5389L15.0108 14.5369Z" fill="#1B1B1B"/>
</svg>
