<svg width="30" height="31" viewBox="0 0 30 31" fill="none" xmlns="http://www.w3.org/2000/svg">
<path d="M13.8396 6.08686C10.3292 6.61685 7.52167 9.51617 7.09955 13.2425L6.66845 17.0481C6.56133 17.9937 6.17808 18.8836 5.56937 19.6001C4.27761 21.1205 5.32602 23.5 7.28767 23.5H22.7123C24.674 23.5 25.7224 21.1205 24.4306 19.6001C23.8219 18.8836 23.4387 17.9937 23.3316 17.0481L23.0467 14.5334M18.75 26C18.2041 27.4565 16.7313 28.5 15 28.5C13.2687 28.5 11.7959 27.4565 11.25 26M25 7.25C25 9.32107 23.3211 11 21.25 11C19.1789 11 17.5 9.32107 17.5 7.25C17.5 5.17893 19.1789 3.5 21.25 3.5C23.3211 3.5 25 5.17893 25 7.25Z" stroke="black" stroke-width="1.5" stroke-linecap="round"/>
<path d="M26 7.5332C26 10.2946 23.7614 12.5332 21 12.5332C18.2386 12.5332 16 10.2946 16 7.5332C16 4.77178 18.2386 2.5332 21 2.5332C23.7614 2.5332 26 4.77178 26 7.5332Z" fill="#FF0000"/>
<path d="M18.55 5.63C18.5833 4.96333 18.8167 4.45 19.25 4.09C19.69 3.72333 20.2667 3.54 20.98 3.54C21.4667 3.54 21.8833 3.62667 22.23 3.8C22.5767 3.96667 22.8367 4.19667 23.01 4.49C23.19 4.77667 23.28 5.10333 23.28 5.47C23.28 5.89 23.17 6.24667 22.95 6.54C22.7367 6.82667 22.48 7.02 22.18 7.12V7.16C22.5667 7.28 22.8667 7.49333 23.08 7.8C23.3 8.10667 23.41 8.5 23.41 8.98C23.41 9.38 23.3167 9.73667 23.13 10.05C22.95 10.3633 22.68 10.61 22.32 10.79C21.9667 10.9633 21.54 11.05 21.04 11.05C20.2867 11.05 19.6733 10.86 19.2 10.48C18.7267 10.1 18.4767 9.54 18.45 8.8H19.81C19.8233 9.12667 19.9333 9.39 20.14 9.59C20.3533 9.78333 20.6433 9.88 21.01 9.88C21.35 9.88 21.61 9.78667 21.79 9.6C21.9767 9.40667 22.07 9.16 22.07 8.86C22.07 8.46 21.9433 8.17333 21.69 8C21.4367 7.82667 21.0433 7.74 20.51 7.74H20.22V6.59H20.51C21.4567 6.59 21.93 6.27333 21.93 5.64C21.93 5.35333 21.8433 5.13 21.67 4.97C21.5033 4.81 21.26 4.73 20.94 4.73C20.6267 4.73 20.3833 4.81667 20.21 4.99C20.0433 5.15667 19.9467 5.37 19.92 5.63H18.55Z" fill="white"/>
</svg>
