<svg width="19" height="24" viewBox="0 0 19 24" fill="none" xmlns="http://www.w3.org/2000/svg">
<path fill-rule="evenodd" clip-rule="evenodd" d="M6.52717 3.57244C6.68684 2.07153 7.95703 0.902344 9.5003 0.902344C11.0436 0.902344 12.3138 2.07153 12.4734 3.57244C14.7079 4.47819 16.3819 6.39524 16.6502 8.75912L17.1193 12.8919C17.1894 13.5099 17.4508 14.1074 17.8857 14.6184C18.6371 15.5011 18.6595 16.6012 18.1714 17.4612C17.6894 18.3106 16.7295 18.9032 15.5601 18.9032H3.44049C2.27113 18.9032 1.31119 18.3106 0.829164 17.4612C0.34113 16.6012 0.363481 15.5011 1.11485 14.6184C1.54983 14.1074 1.81116 13.5099 1.88129 12.8919L2.35036 8.75913C2.61865 6.39525 4.29268 4.47819 6.52717 3.57244ZM9.5003 2.12044C8.52168 2.12044 7.72836 2.91377 7.72836 3.89239V4.00118C7.72836 4.26151 7.56289 4.49306 7.31659 4.57739C5.25233 5.28417 3.78267 6.9407 3.56069 8.89649L3.09162 13.0293C2.99279 13.9001 2.62625 14.7221 2.04241 15.408C1.64308 15.8771 1.63745 16.4175 1.88857 16.86C2.14569 17.3131 2.69203 17.6851 3.44049 17.6851H15.5601C16.3086 17.6851 16.8549 17.3131 17.112 16.86C17.3631 16.4175 17.3575 15.8771 16.9582 15.408C16.3743 14.7221 16.0078 13.9001 15.909 13.0293L15.4399 8.89649C15.2179 6.94069 13.7483 5.28417 11.684 4.57739C11.4377 4.49306 11.2722 4.26151 11.2722 4.00118V3.89239C11.2722 2.91377 10.4789 2.12044 9.5003 2.12044ZM6.1398 19.8216C6.45477 19.7036 6.80581 19.8632 6.92385 20.1782C7.28935 21.1535 8.2915 21.8808 9.5003 21.8808C10.7091 21.8808 11.7112 21.1535 12.0767 20.1782C12.1948 19.8632 12.5458 19.7036 12.8608 19.8216C13.1758 19.9397 13.3354 20.2907 13.2174 20.6057C12.6668 22.0748 11.1971 23.0989 9.5003 23.0989C7.80353 23.0989 6.33382 22.0748 5.78322 20.6057C5.66518 20.2907 5.82482 19.9397 6.1398 19.8216Z" fill="#2AB579"/>
</svg>
