<svg width="29" height="21" viewBox="0 0 29 21" fill="none" xmlns="http://www.w3.org/2000/svg">
<ellipse cx="14.3213" cy="16.6077" rx="8.14286" ry="3.39286" stroke="#383838" stroke-width="1.5" stroke-linejoin="round"/>
<circle cx="14.3214" cy="5.07143" r="4.07143" stroke="#383838" stroke-width="1.5" stroke-linejoin="round"/>
<path fill-rule="evenodd" clip-rule="evenodd" d="M6.27017 12.5098C4.81896 12.6144 3.49992 12.8969 2.45895 13.3133C1.79267 13.5798 1.20314 13.9159 0.767924 14.3275C0.331121 14.7406 0 15.2815 0 15.929C0 16.5764 0.331121 17.1173 0.767924 17.5304C1.20314 17.942 1.79267 18.2781 2.45895 18.5446C3.03301 18.7742 3.69165 18.9631 4.41038 19.104C3.97189 18.5541 3.67376 17.9611 3.54165 17.3395C3.35662 17.2806 3.18112 17.2179 3.01603 17.1519C2.45434 16.9272 2.05012 16.6784 1.79859 16.4406C1.54864 16.2042 1.5 16.031 1.5 15.929C1.5 15.8269 1.54864 15.6537 1.79859 15.4174C2.05012 15.1795 2.45434 14.9307 3.01603 14.706C3.37962 14.5606 3.7937 14.4314 4.24891 14.3233C4.73096 13.6512 5.41944 13.0384 6.27017 12.5098Z" fill="#383838"/>
<path fill-rule="evenodd" clip-rule="evenodd" d="M25.1018 17.3396C24.9697 17.9612 24.6716 18.5542 24.2331 19.104C24.9519 18.9632 25.6106 18.7743 26.1848 18.5446C26.851 18.2781 27.4406 17.942 27.8758 17.5304C28.3126 17.1173 28.6437 16.5764 28.6437 15.929C28.6437 15.2815 28.3126 14.7406 27.8758 14.3275C27.4406 13.9159 26.851 13.5798 26.1848 13.3133C25.1437 12.8969 23.8246 12.6144 22.3733 12.5098C23.224 13.0384 23.9125 13.6511 24.3945 14.3232C24.8498 14.4314 25.264 14.5606 25.6277 14.706C26.1894 14.9307 26.5936 15.1795 26.8451 15.4174C27.0951 15.6537 27.1437 15.8269 27.1437 15.929C27.1437 16.0311 27.0951 16.2042 26.8451 16.4406C26.5936 16.6785 26.1894 16.9272 25.6277 17.1519C25.4625 17.218 25.2869 17.2807 25.1018 17.3396Z" fill="#383838"/>
<path fill-rule="evenodd" clip-rule="evenodd" d="M20.3276 8.23644C20.0903 8.68643 19.8038 9.1065 19.4753 9.48954C19.9617 9.74977 20.5173 9.89732 21.1075 9.89732C23.0207 9.89732 24.5717 8.34631 24.5717 6.43304C24.5717 4.51976 23.0207 2.96875 21.1075 2.96875C20.9968 2.96875 20.8874 2.97393 20.7795 2.98407C20.9329 3.45831 21.0355 3.9554 21.081 4.46892C21.0898 4.46881 21.0986 4.46875 21.1075 4.46875C22.1923 4.46875 23.0717 5.34819 23.0717 6.43304C23.0717 7.51788 22.1923 8.39732 21.1075 8.39732C20.8304 8.39732 20.5667 8.33995 20.3276 8.23644Z" fill="#383838"/>
<path fill-rule="evenodd" clip-rule="evenodd" d="M7.86382 2.9841C7.75577 2.97394 7.64628 2.96875 7.53557 2.96875C5.6223 2.96875 4.07129 4.51976 4.07129 6.43304C4.07129 8.34631 5.6223 9.89732 7.53557 9.89732C8.12578 9.89732 8.68151 9.74973 9.16788 9.48944C8.83945 9.1064 8.55299 8.68633 8.31561 8.23634C8.0765 8.33991 7.81274 8.39732 7.53557 8.39732C6.45073 8.39732 5.57129 7.51788 5.57129 6.43304C5.57129 5.34819 6.45073 4.46875 7.53557 4.46875C7.5445 4.46875 7.55342 4.46881 7.56232 4.46893C7.60776 3.95541 7.71039 3.45833 7.86382 2.9841Z" fill="#383838"/>
</svg>
