<svg width="21" height="21" viewBox="0 0 21 21" fill="none" xmlns="http://www.w3.org/2000/svg">
<path d="M17.5 2.625H7C6.0335 2.625 5.25 3.4085 5.25 4.375V7C5.25 7.48325 4.85825 7.875 4.375 7.875C2.92525 7.875 1.75 9.05025 1.75 10.5C1.75 11.9497 2.92525 13.125 4.375 13.125C4.85825 13.125 5.25 13.5168 5.25 14V16.625C5.25 17.5915 6.0335 18.375 7 18.375H8.75C9.23325 18.375 9.625 17.9832 9.625 17.5C9.625 16.0503 10.8003 14.875 12.25 14.875C13.6997 14.875 14.875 16.0503 14.875 17.5C14.875 17.9832 15.2668 18.375 15.75 18.375H17.5C18.4665 18.375 19.25 17.5915 19.25 16.625V14C19.25 13.5168 18.8582 13.125 18.375 13.125C16.9253 13.125 15.75 11.9497 15.75 10.5C15.75 9.05025 16.9253 7.875 18.375 7.875C18.8582 7.875 19.25 7.48325 19.25 7V4.375C19.25 3.4085 18.4665 2.625 17.5 2.625Z" stroke="#383838" stroke-width="1.5" stroke-linejoin="round"/>
</svg>
