<svg width="19" height="22" viewBox="0 0 19 22" fill="none" xmlns="http://www.w3.org/2000/svg">
<path fill-rule="evenodd" clip-rule="evenodd" d="M9.5 1.75C7.70507 1.75 6.25 3.20507 6.25 5V6.25H12.75V5C12.75 3.20507 11.2949 1.75 9.5 1.75ZM14.25 6.30888V5C14.25 2.37665 12.1234 0.25 9.5 0.25C6.87665 0.25 4.75 2.37665 4.75 5V6.30888C2.48301 6.66846 0.75 8.63185 0.75 11V17C0.75 19.6234 2.87665 21.75 5.5 21.75H13.5C16.1234 21.75 18.25 19.6234 18.25 17V11C18.25 8.63185 16.517 6.66846 14.25 6.30888ZM5.5 7.75C3.70507 7.75 2.25 9.20507 2.25 11V17C2.25 18.7949 3.70508 20.25 5.5 20.25H13.5C15.2949 20.25 16.75 18.7949 16.75 17V11C16.75 9.20507 15.2949 7.75 13.5 7.75H5.5ZM9.5 12.25C9.91421 12.25 10.25 12.5858 10.25 13V15C10.25 15.4142 9.91421 15.75 9.5 15.75C9.08579 15.75 8.75 15.4142 8.75 15V13C8.75 12.5858 9.08579 12.25 9.5 12.25Z" fill="#2AB579"/>
</svg>
