<svg width="32" height="34" viewBox="0 0 32 34" fill="none" xmlns="http://www.w3.org/2000/svg">
<path opacity="0.4" d="M31.3 27.1984V10.1984C31.3 6.4429 28.2555 3.39844 24.5 3.39844H7.49995C3.74442 3.39844 0.699951 6.4429 0.699951 10.1984V27.1984C0.699951 30.954 3.74441 33.9984 7.49995 33.9984H24.5C28.2555 33.9984 31.3 30.954 31.3 27.1984Z" fill="#2AB679"/>
<path fill-rule="evenodd" clip-rule="evenodd" d="M7.9248 13.6031C7.9248 12.899 8.49564 12.3281 9.1998 12.3281H22.7998C23.504 12.3281 24.0748 12.899 24.0748 13.6031C24.0748 14.3073 23.504 14.8781 22.7998 14.8781H9.1998C8.49564 14.8781 7.9248 14.3073 7.9248 13.6031Z" fill="#2AB679"/>
<path fill-rule="evenodd" clip-rule="evenodd" d="M7.92505 20.4C7.92505 19.6958 8.49589 19.125 9.20005 19.125H22.8C23.5042 19.125 24.075 19.6958 24.075 20.4C24.075 21.1042 23.5042 21.675 22.8 21.675H9.20005C8.49589 21.675 7.92505 21.1042 7.92505 20.4Z" fill="#2AB679"/>
<path fill-rule="evenodd" clip-rule="evenodd" d="M7.9248 27.1969C7.9248 26.4927 8.49564 25.9219 9.1998 25.9219H15.9998C16.704 25.9219 17.2748 26.4927 17.2748 27.1969C17.2748 27.901 16.704 28.4719 15.9998 28.4719H9.1998C8.49564 28.4719 7.9248 27.901 7.9248 27.1969Z" fill="#2AB679"/>
<rect x="9.19995" width="13.6" height="6.8" rx="3.4" fill="#2AB679"/>
</svg>
