<svg width="33" height="33" viewBox="0 0 33 33" fill="none" xmlns="http://www.w3.org/2000/svg">
<path d="M20.1401 22.3913L22.4014 20.1309L32.0117 29.7412L29.7505 32.0016L20.1401 22.3913Z" fill="#1B1B1B"/>
<path d="M12.8038 25.5968C19.8694 25.5968 25.5973 19.869 25.5973 12.8033C25.5973 5.73762 19.8694 0.00976562 12.8038 0.00976562C5.73811 0.00976562 0.0102539 5.73762 0.0102539 12.8033C0.0102539 19.869 5.73811 25.5968 12.8038 25.5968Z" fill="#1B1B1B"/>
<path d="M19.9817 22.4937L22.2421 20.2324L31.994 29.5948L29.5952 31.9936L19.9817 22.4937Z" fill="#9C9CA4"/>
<path d="M12.8037 23.1977C18.5445 23.1977 23.1984 18.5438 23.1984 12.8029C23.1984 7.06209 18.5445 2.4082 12.8037 2.4082C7.06282 2.4082 2.40894 7.06209 2.40894 12.8029C2.40894 18.5438 7.06282 23.1977 12.8037 23.1977Z" fill="#9C9CA4"/>
<path d="M18.321 8.16613C16.9617 6.56694 14.9627 5.60742 12.8038 5.60742C10.6449 5.60742 8.64593 6.56694 7.28662 8.16613C6.96678 8.48596 7.04674 9.04568 7.36658 9.28556C7.68641 9.6054 8.24613 9.52544 8.48601 9.2056C9.60544 7.92625 11.1247 7.20661 12.8038 7.20661C14.483 7.20661 16.0022 7.92625 17.1216 9.2056C17.2816 9.36552 17.5214 9.52544 17.7613 9.52544C17.9212 9.52544 18.1611 9.44548 18.2411 9.36552C18.5609 9.04568 18.5609 8.48596 18.321 8.16613Z" fill="white"/>
</svg>
