<svg width="25" height="25" viewBox="0 0 25 25" fill="none" xmlns="http://www.w3.org/2000/svg">
<path d="M21.6082 16.3756L20.9686 15.9839L20.9686 15.9839L21.6082 16.3756ZM20.6139 17.9994L21.2535 18.3911L21.2535 18.3911L20.6139 17.9994ZM3.39176 8.62439L2.75215 8.23273L2.75215 8.23273L3.39176 8.62439ZM4.38608 7.00059L5.02569 7.39226L5.02569 7.39226L4.38608 7.00059ZM7.10262 6.3143L7.4612 5.65557L7.4612 5.65557L7.10262 6.3143ZM4.11966 11.1857L3.76107 11.8444L3.76107 11.8444L4.11966 11.1857ZM17.8974 18.6857L17.5388 19.3444L17.5388 19.3444L17.8974 18.6857ZM20.8803 13.8143L20.5218 14.473L20.5218 14.473L20.8803 13.8143ZM4.38608 17.9994L3.74647 18.3911L3.74647 18.3911L4.38608 17.9994ZM3.39176 16.3756L4.03137 15.9839L4.03137 15.9839L3.39176 16.3756ZM20.6139 7.00061L21.2535 6.60895L21.2535 6.60895L20.6139 7.00061ZM21.6082 8.62441L20.9686 9.01607L20.9686 9.01607L21.6082 8.62441ZM20.8803 11.1857L21.2389 11.8444L21.2389 11.8444L20.8803 11.1857ZM17.8974 6.31431L18.256 6.97304L18.256 6.97304L17.8974 6.31431ZM4.11965 13.8143L4.47824 14.473L4.47824 14.473L4.11965 13.8143ZM7.10262 18.6857L6.74404 18.027L6.74404 18.027L7.10262 18.6857ZM17.7917 6.37185L17.4331 5.71313L17.4331 5.71313L17.7917 6.37185ZM7.20833 6.37184L6.84975 7.03057L6.84975 7.03057L7.20833 6.37184ZM17.7917 18.6281L18.1503 17.9694L18.1503 17.9694L17.7917 18.6281ZM7.20833 18.6282L7.56691 19.2869L7.56691 19.2869L7.20833 18.6282ZM11.5057 3.875H13.4943V2.375H11.5057V3.875ZM13.4943 21.125H11.5057V22.625H13.4943V21.125ZM11.5057 21.125C10.7794 21.125 10.267 20.5804 10.267 20H8.76703C8.76703 21.4907 10.0354 22.625 11.5057 22.625V21.125ZM14.733 20C14.733 20.5804 14.2206 21.125 13.4943 21.125V22.625C14.9646 22.625 16.233 21.4907 16.233 20H14.733ZM13.4943 3.875C14.2206 3.875 14.733 4.41965 14.733 5H16.233C16.233 3.50928 14.9646 2.375 13.4943 2.375V3.875ZM11.5057 2.375C10.0354 2.375 8.76703 3.50929 8.76703 5H10.267C10.267 4.41965 10.7794 3.875 11.5057 3.875V2.375ZM20.9686 15.9839L19.9743 17.6077L21.2535 18.3911L22.2478 16.7673L20.9686 15.9839ZM4.03137 9.01605L5.02569 7.39226L3.74647 6.60893L2.75215 8.23273L4.03137 9.01605ZM5.02569 7.39226C5.3563 6.85235 6.12661 6.63692 6.74404 6.97302L7.4612 5.65557C6.17633 4.95614 4.51416 5.35524 3.74647 6.60893L5.02569 7.39226ZM4.47824 10.527C3.8842 10.2036 3.718 9.52781 4.03137 9.01605L2.75215 8.23273C1.96722 9.51457 2.4528 11.1322 3.76107 11.8444L4.47824 10.527ZM19.9743 17.6077C19.6437 18.1476 18.8734 18.3631 18.256 18.027L17.5388 19.3444C18.8237 20.0438 20.4858 19.6447 21.2535 18.3911L19.9743 17.6077ZM22.2478 16.7673C23.0328 15.4854 22.5472 13.8677 21.2389 13.1556L20.5218 14.473C21.1158 14.7964 21.282 15.4722 20.9686 15.9839L22.2478 16.7673ZM5.02569 17.6077L4.03137 15.9839L2.75215 16.7673L3.74647 18.3911L5.02569 17.6077ZM19.9743 7.39227L20.9686 9.01607L22.2478 8.23274L21.2535 6.60895L19.9743 7.39227ZM20.9686 9.01607C21.282 9.52782 21.1158 10.2036 20.5218 10.527L21.2389 11.8444C22.5472 11.1323 23.0328 9.51459 22.2478 8.23274L20.9686 9.01607ZM18.256 6.97304C18.8734 6.63693 19.6437 6.85237 19.9743 7.39227L21.2535 6.60895C20.4858 5.35525 18.8237 4.95615 17.5388 5.65558L18.256 6.97304ZM4.03137 15.9839C3.718 15.4722 3.8842 14.7964 4.47824 14.473L3.76107 13.1556C2.4528 13.8678 1.96722 15.4854 2.75215 16.7673L4.03137 15.9839ZM3.74647 18.3911C4.51416 19.6448 6.17633 20.0439 7.4612 19.3444L6.74404 18.027C6.1266 18.3631 5.3563 18.1476 5.02569 17.6077L3.74647 18.3911ZM18.1503 7.03058L18.256 6.97304L17.5388 5.65558L17.4331 5.71313L18.1503 7.03058ZM6.74404 6.97302L6.84975 7.03057L7.56692 5.71312L7.4612 5.65557L6.74404 6.97302ZM18.256 18.027L18.1503 17.9694L17.4331 19.2869L17.5388 19.3444L18.256 18.027ZM6.84975 17.9694L6.74404 18.027L7.4612 19.3444L7.56691 19.2869L6.84975 17.9694ZM3.76107 11.8444C4.28047 12.1272 4.28048 12.8728 3.76107 13.1556L4.47824 14.473C6.04142 13.6221 6.04142 11.3779 4.47824 10.527L3.76107 11.8444ZM7.56691 19.2869C8.10795 18.9924 8.76703 19.384 8.76703 20H10.267C10.267 18.246 8.39031 17.1308 6.84975 17.9694L7.56691 19.2869ZM16.233 20C16.233 19.384 16.8921 18.9924 17.4331 19.2869L18.1503 17.9694C16.6097 17.1308 14.733 18.246 14.733 20H16.233ZM21.2389 13.1556C20.7195 12.8728 20.7195 12.1272 21.2389 11.8444L20.5218 10.527C18.9586 11.3779 18.9586 13.6221 20.5218 14.473L21.2389 13.1556ZM6.84975 7.03057C8.39031 7.86918 10.267 6.75403 10.267 5H8.76703C8.76703 5.616 8.10795 6.00763 7.56692 5.71312L6.84975 7.03057ZM17.4331 5.71313C16.8921 6.00764 16.233 5.61601 16.233 5H14.733C14.733 6.75403 16.6097 7.8692 18.1503 7.03058L17.4331 5.71313ZM14.875 12.5C14.875 13.8117 13.8117 14.875 12.5 14.875V16.375C14.6401 16.375 16.375 14.6401 16.375 12.5H14.875ZM12.5 14.875C11.1883 14.875 10.125 13.8117 10.125 12.5H8.62501C8.62501 14.6401 10.3599 16.375 12.5 16.375V14.875ZM10.125 12.5C10.125 11.1883 11.1883 10.125 12.5 10.125V8.625C10.3599 8.625 8.62501 10.3599 8.62501 12.5H10.125ZM12.5 10.125C13.8117 10.125 14.875 11.1883 14.875 12.5H16.375C16.375 10.3599 14.6401 8.625 12.5 8.625V10.125Z" fill="#383838"/>
</svg>
