<svg width="266" height="196" viewBox="0 0 266 196" fill="none" xmlns="http://www.w3.org/2000/svg">
<g clip-path="url(#clip0_1_1205)">
<path d="M112.956 15.2467C112.886 16.7699 113.018 18.346 114.369 19.3135C114.832 19.6458 115.384 19.8594 115.91 20.0715C117.633 20.7669 119.424 21.3014 121.189 21.879C125.771 23.3771 130.529 24.8897 134.614 27.5024C135.58 28.1206 136.478 28.7941 137.269 29.63C137.908 30.3051 138.45 31.1094 138.711 31.9461C138.944 32.6927 140.127 32.3743 139.892 31.622C139.312 29.7576 137.863 28.3424 136.329 27.2042C134.449 25.8102 132.312 24.7703 130.166 23.8531C125.946 22.0513 121.533 20.8246 117.224 19.2713C116.845 19.1348 116.469 18.9942 116.098 18.8407C116.074 18.8301 115.96 18.7814 115.93 18.7684C115.859 18.7367 115.789 18.705 115.719 18.6725C115.583 18.6092 115.449 18.5426 115.318 18.4703C115.211 18.411 115.111 18.3435 115.008 18.2777C115.005 18.2753 115.002 18.2745 115 18.2728C114.991 18.2639 114.98 18.2525 114.965 18.2387C114.816 18.0941 114.67 17.956 114.556 17.7822C114.068 17.0396 114.142 16.0932 114.181 15.2475C114.217 14.4636 112.991 14.4652 112.956 15.2475L112.956 15.2467Z" fill="black"/>
<path d="M117.937 14.5187C122.114 14.1458 126.297 14.9541 130.158 16.5375C133.642 17.9664 136.931 20.0421 139.637 22.658C140.718 23.7027 141.719 24.8433 142.513 26.1204C143.311 27.4048 143.844 28.8338 144.38 30.24C145.049 31.9972 145.689 33.7658 146.444 35.4888C147.134 37.0633 147.921 38.6474 149.09 39.9302C149.882 40.7994 150.804 41.4713 151.791 42.0481C151.613 42.1366 151.482 42.3088 151.48 42.5664C151.475 44.2448 151.325 46.0767 150.434 47.5496C149.929 48.3839 149.233 48.9192 148.359 49.1833C148.428 48.2661 148.446 47.3408 148.362 46.4244C148.291 45.6502 147.064 45.6421 147.136 46.4244C147.29 48.0963 147.137 49.8048 146.855 51.4547C146.513 53.4597 145.97 55.4655 145.115 57.3169C144.657 58.308 144.113 59.2772 143.427 60.131C143.219 60.3902 143.177 60.7387 143.427 60.993C143.639 61.2082 144.087 61.2497 144.294 60.993C146.646 58.0643 147.801 54.1941 148.237 50.4693C148.238 50.4693 148.241 50.4693 148.242 50.4685C151.893 49.7796 152.695 45.69 152.706 42.568C152.706 42.5623 152.706 42.5566 152.706 42.5509C153.244 42.8288 153.794 43.0887 154.35 43.3438C156.08 44.14 157.71 45.0182 158.666 46.7331C159.048 47.4188 160.107 46.8054 159.724 46.1181C158.834 44.5218 157.414 43.4746 155.795 42.6817C154.157 41.8791 152.415 41.2292 150.993 40.0561C149.603 38.909 148.702 37.4313 147.937 35.826C147.122 34.1183 146.475 32.3368 145.808 30.5682C145.229 29.0344 144.675 27.4543 143.873 26.0188C143.132 24.6914 142.155 23.4883 141.101 22.3956C138.48 19.6782 135.241 17.5074 131.81 15.9371C127.49 13.9606 122.703 12.8776 117.938 13.3025C117.158 13.3724 117.151 14.591 117.938 14.5211L117.937 14.5187Z" fill="black"/>
<path d="M146.959 39.9026C147.748 39.9115 147.748 38.6929 146.959 38.684C146.218 38.6759 145.603 38.3688 145.062 37.8229C144.436 37.1917 143.995 36.3744 143.614 35.562C142.703 33.6196 142.152 31.5326 141.336 29.552C140.913 28.5267 140.44 27.5291 139.737 26.6615C139.528 26.4031 139.089 26.4486 138.87 26.6615C138.612 26.9117 138.663 27.2683 138.87 27.5234C140.095 29.0361 140.676 31.2393 141.332 33.0867C142.018 35.0234 142.723 37.2225 144.22 38.71C144.96 39.4452 145.907 39.8912 146.959 39.9026Z" fill="black"/>
<path d="M107.249 42.7123C107.58 44.3062 107.726 45.9229 107.902 47.5395C108.096 49.3187 108.314 51.1108 108.803 52.8379C109.098 53.8818 109.478 54.9022 109.897 55.9031C110.951 58.4223 112.244 60.844 113.732 63.1366C115.241 65.4633 116.96 67.7071 119.005 69.5975C120.688 71.154 122.734 72.6342 125.051 73.0331C126.721 73.3207 128.416 73.2362 130.048 72.8592C130.845 74.4596 131.242 76.2737 131.446 78.0333C131.69 80.1423 131.691 82.3162 131.343 84.4138C131.171 85.4512 130.925 86.5009 130.513 87.4725C130.473 87.531 130.444 87.5976 130.43 87.6707C129.453 90.1639 128.66 92.7619 128.198 95.4006C127.76 97.9035 127.422 100.853 129.117 102.974C129.801 103.829 130.733 104.616 130.752 105.795C130.771 106.919 129.887 107.785 129.193 108.593C128.474 109.428 127.52 110.373 127.313 111.497C127.041 112.966 128.516 113.516 129.243 114.524C129.693 115.147 130.216 115.883 130.31 116.67C130.361 117.108 130.22 117.472 129.957 117.861C129.622 118.355 129.166 118.771 128.75 119.195C128.137 119.82 127.556 120.466 127.026 121.162C126.825 121.426 126.986 121.841 127.246 121.996C127.558 122.182 127.885 122.038 128.084 121.777C128.9 120.706 129.953 119.847 130.782 118.79C131.489 117.888 131.737 116.847 131.332 115.75C131.052 114.99 130.607 114.298 130.117 113.657C129.7 113.111 129.095 112.76 128.659 112.237C128.523 112.072 128.493 112.007 128.499 111.855C128.503 111.753 128.571 111.508 128.647 111.348C128.883 110.849 129.25 110.409 129.602 109.99C130.381 109.063 131.328 108.155 131.78 107.01C132.257 105.804 131.868 104.455 131.112 103.459C130.404 102.526 129.54 101.786 129.265 100.604C128.978 99.3731 129.066 98.0555 129.217 96.8125C129.525 94.2738 130.232 91.7497 131.109 89.3304C131.962 90.5766 133.346 91.5182 134.636 92.1803C136.824 93.303 139.376 93.9488 141.847 93.7555C142.961 93.6685 144.056 93.4102 145.06 92.9333C144.687 95.9652 144.766 99.0319 145.571 102.004C146.261 104.55 147.533 106.894 148.946 109.11C149.897 110.603 151.007 112.065 151.622 113.738C152.496 116.114 152.222 118.684 151.738 121.115C151.586 121.881 152.767 122.209 152.92 121.439C153.379 119.128 153.678 116.696 153.1 114.377C152.667 112.639 151.71 111.12 150.741 109.634C149.428 107.621 148.112 105.559 147.271 103.299C146.254 100.568 145.944 97.6533 146.12 94.758C146.319 91.4792 147.124 88.2637 148.178 85.1612C148.43 84.4163 147.247 84.097 146.996 84.8371C146.273 86.9688 145.664 89.1866 145.28 91.4353C145.237 91.4507 145.193 91.471 145.15 91.4979C143.282 92.6433 140.975 92.7676 138.862 92.3606C136.812 91.9658 134.724 91.1185 133.143 89.7358C132.529 89.198 131.952 88.5383 131.687 87.8039C132.44 85.9078 132.742 83.8582 132.819 81.828C132.906 79.5468 132.702 77.2169 132.124 75.0039C132.059 74.7529 131.987 74.5035 131.909 74.2549C132.565 73.9007 133.955 73.0729 135.601 71.6407C139.293 68.4285 141.088 65.6062 141.71 64.4989C141.834 64.3552 141.959 64.2114 142.082 64.0676C142.589 63.4729 141.726 62.6069 141.215 63.2056C138.278 66.6502 134.77 70.2962 130.333 71.5367C130.273 71.544 130.213 71.561 130.157 71.5846C129.209 71.8348 128.218 71.9745 127.182 71.9794C125.991 71.9851 124.867 71.8446 123.76 71.3815C122.763 70.9647 121.83 70.362 120.987 69.6917C118.935 68.0613 117.219 66.0222 115.718 63.8913C114.163 61.6848 112.805 59.3338 111.665 56.8909C110.625 54.665 109.825 52.3806 109.437 49.9507C109.139 48.0798 109.018 46.1869 108.763 44.3103C108.59 43.0511 108.325 41.8081 108.004 40.579C107.949 40.3686 107.892 40.159 107.834 39.9494C108.709 40.0509 109.559 40.2841 110.3 40.7171C111.039 41.1477 111.622 41.7529 112.054 42.4849C112.985 44.0625 113.187 45.9936 113.198 47.845C113.21 49.7054 112.991 51.5527 112.808 53.4009C112.742 54.0541 112.669 54.7154 112.687 55.3726C112.7 55.8503 112.75 56.4003 113.113 56.7536C114.112 57.7244 115.843 57.1046 116.957 56.7211C117.718 56.4596 118.469 56.1679 119.246 55.9502C119.848 55.7812 120.541 55.6204 121.134 55.7552C121.902 55.9307 122.229 54.756 121.46 54.5805C120.124 54.275 118.732 54.8047 117.488 55.245C116.846 55.4725 116.205 55.713 115.544 55.8844C115.076 56.0054 114.531 56.111 114.143 55.9778C114.123 55.9713 114.018 55.8982 113.977 55.886C113.986 55.8982 113.997 55.9169 114.013 55.9445C113.995 55.9128 113.983 55.8958 113.976 55.8893C113.976 55.8876 113.976 55.8868 113.976 55.886C113.973 55.886 113.97 55.8844 113.968 55.8836C113.956 55.8836 113.944 55.8397 113.975 55.8836C113.973 55.8746 113.971 55.8641 113.969 55.8519C113.96 55.8113 113.951 55.7682 113.939 55.7276C113.937 55.7219 113.937 55.7178 113.935 55.713C113.927 55.5936 113.915 55.4749 113.913 55.3547C113.897 54.7032 113.969 54.0484 114.034 53.4009C114.219 51.5414 114.439 49.6818 114.424 47.8101C114.41 45.8481 114.171 43.7831 113.209 42.0364C112.026 39.8901 109.846 38.8746 107.473 38.6967C106.981 37.0427 106.445 35.4008 106.039 33.7232C105.553 31.7093 105.277 29.5955 105.776 27.5556C106.394 25.0299 108.087 22.9819 110.023 21.3075C110.683 20.7364 111.377 20.2092 112.09 19.7063C112.729 19.2571 112.117 18.1993 111.472 18.6543C108.988 20.4025 106.548 22.5318 105.265 25.3394C104.286 27.4809 104.126 29.771 104.467 32.0765C104.814 34.4292 105.606 36.6942 106.28 38.9672C106.646 40.2037 106.989 41.4491 107.252 42.7123H107.249Z" fill="black"/>
<path d="M113.976 55.8882C113.976 55.8882 113.974 55.8859 113.974 55.8848C113.974 55.8848 113.974 55.8871 113.974 55.8882C113.974 55.8882 113.975 55.8882 113.976 55.8882Z" fill="black"/>
<path d="M127.696 58.7776C128.212 58.1887 127.348 57.3227 126.829 57.9157C126.05 58.8069 125.131 59.5957 123.99 59.98C123.122 60.2716 122.222 60.3285 121.313 60.3171C119.343 60.2936 117.44 60.1611 115.63 61.0921C114.929 61.4528 115.549 62.5041 116.249 62.1442C118.001 61.2432 119.927 61.5698 121.818 61.5349C122.81 61.5162 123.804 61.3789 124.725 61.0003C125.895 60.5194 126.87 59.7216 127.696 58.7776Z" fill="black"/>
<path d="M122.889 62.1498C122.096 62.6632 121.238 62.9451 120.295 63.0288C119.516 63.0978 119.509 64.3172 120.295 64.2473C121.452 64.145 122.528 63.8355 123.508 63.2018C124.166 62.7753 123.553 61.72 122.889 62.1498Z" fill="black"/>
<path d="M126.876 36.4377C127.205 36.4816 127.489 36.1266 127.489 35.8284C127.489 35.4629 127.205 35.263 126.876 35.2191C123.715 34.8008 120.557 36.4523 118.604 38.8619C118.395 39.1202 118.355 39.4704 118.604 39.7238C118.816 39.9399 119.263 39.9797 119.471 39.7238C121.25 37.528 123.991 36.0559 126.876 36.4385V36.4377Z" fill="black"/>
<path d="M109.834 43.8807C110.042 44.9441 110.286 45.9807 110.968 46.8524C111.172 47.114 111.619 47.062 111.835 46.8524C112.095 46.5989 112.036 46.2488 111.835 45.9905C111.308 45.3162 111.175 44.3697 111.016 43.5565C110.866 42.7872 109.684 43.113 109.834 43.8807H109.834Z" fill="black"/>
<path d="M123.589 43.5329C123.787 44.0406 124.099 44.446 124.489 44.8246C125.054 45.3729 125.921 44.5118 125.356 43.9626C125.069 43.684 124.832 43.3923 124.723 43.0787C124.541 42.5548 124.419 42.0096 124.248 41.4816C124.008 40.7383 122.824 41.0559 123.067 41.8057C123.251 42.376 123.372 42.9748 123.589 43.5329Z" fill="black"/>
<path d="M120.432 118.567C120.915 119.534 121.665 120.363 122.449 121.098C123.202 121.805 124.028 122.3 125.068 122.443C125.398 122.489 125.723 122.364 125.822 122.018C125.904 121.733 125.722 121.313 125.394 121.268C124.526 121.148 123.9 120.789 123.272 120.194C122.612 119.568 121.992 118.894 121.562 118.089C120.931 116.909 121.004 115.638 121.199 114.359C121.433 112.825 121.719 111.216 121.412 109.67C121.129 108.245 120.09 107.127 119.088 106.138C118.017 105.082 116.75 104.012 116.531 102.441C116.486 102.116 116.066 101.935 115.777 102.015C115.424 102.113 115.303 102.436 115.349 102.765C115.558 104.264 116.62 105.424 117.658 106.448C118.641 107.417 119.838 108.418 120.188 109.81C120.56 111.286 120.172 112.924 119.963 114.397C119.758 115.843 119.763 117.228 120.431 118.565L120.432 118.567Z" fill="black"/>
<path d="M102.151 53.0848C101.908 55.5569 102.503 57.8844 103.798 60.0023C104.208 60.6709 105.268 60.06 104.856 59.3873C103.747 57.5749 103.198 55.6317 103.342 53.5073C103.479 51.4755 104.063 49.4933 104.408 47.4924C104.614 46.2998 104.826 45.0617 104.776 43.848C104.733 42.8008 104.488 41.7837 104.111 40.8088C103.408 38.9923 102.296 37.1588 102.285 35.1579C102.272 33.031 103.022 30.9066 103.563 28.8716C103.765 28.1128 102.583 27.7887 102.382 28.5475C101.872 30.4647 101.285 32.3827 101.098 34.365C100.899 36.4812 101.767 38.4302 102.594 40.3271C102.989 41.2305 103.347 42.1647 103.489 43.1445C103.661 44.3289 103.488 45.5451 103.301 46.7173C102.962 48.8466 102.362 50.9361 102.151 53.0848H102.151Z" fill="black"/>
<path d="M149.663 69.0052C150.98 72.0931 152.733 74.9885 154.392 77.9009C155.586 79.9985 156.634 82.391 158.698 83.7948C159.35 84.2383 159.964 83.183 159.316 82.7427C157.606 81.5794 156.719 79.5216 155.733 77.7847C154.743 76.0389 153.73 74.3044 152.77 72.5416C151.151 69.569 149.76 66.4974 149.131 63.1552C148.728 61.0122 148.635 58.8252 148.693 56.6488C148.714 55.8641 147.488 55.8649 147.468 56.6488C147.379 59.9804 147.713 63.2942 148.713 66.4665C148.663 66.5461 148.629 66.6412 148.62 66.7525C148.25 71.1434 147.885 75.5905 148.327 79.9904C148.737 84.0718 149.937 87.994 152.095 91.5043C153.522 93.8237 155.291 95.9229 157.218 97.845C157.775 98.4015 158.642 97.5396 158.085 96.9831C154.966 93.8724 152.307 90.2719 150.862 86.0857C149.565 82.3252 149.283 78.3477 149.373 74.3987C149.414 72.5984 149.526 70.8006 149.663 69.0052Z" fill="black"/>
<path d="M171.556 64.4157C171.776 65.2492 171.868 66.1014 171.813 66.9626C171.758 67.8042 171.475 68.511 171.038 69.2267C170.587 69.966 170.061 70.6598 169.656 71.4275C169.211 72.2723 169 73.1375 168.899 74.0823C168.647 76.4732 169.113 78.8649 169.133 81.2565C169.132 81.2842 169.132 81.3134 169.135 81.3435C169.135 81.3711 169.137 81.3971 169.14 81.4231C169.206 82.4077 168.962 83.3818 168.674 84.3176C168.31 85.5021 167.84 86.6524 167.368 87.7971C166.528 89.8297 165.492 91.924 165.323 94.1459C165.204 95.7106 165.471 97.2679 165.715 98.8082C165.99 100.544 166.184 102.292 166.079 104.081C165.899 107.14 164.92 110.111 163.674 112.893C163.538 113.196 163.588 113.545 163.894 113.727C164.153 113.882 164.598 113.808 164.732 113.508C165.921 110.853 166.864 108.092 167.206 105.195C167.435 103.25 167.317 101.317 167.035 99.3842C166.807 97.822 166.502 96.4173 166.519 94.8389C166.541 92.7648 167.43 90.8184 168.217 88.9206C168.768 87.5915 169.335 86.2641 169.776 84.8944C170.14 83.7636 170.462 82.5401 170.36 81.3427C170.351 79.1354 169.957 76.9395 170.074 74.7306C170.124 73.7899 170.27 72.8824 170.714 72.0416C171.127 71.2577 171.668 70.5501 172.126 69.7913C172.591 69.0204 172.905 68.2283 173.005 67.3322C173.104 66.441 173.043 65.5401 172.869 64.6611C172.522 62.9104 171.674 61.2913 170.747 59.7811C169.743 58.1474 168.593 56.5924 167.76 54.8612C167.42 54.1545 166.363 54.7719 166.702 55.4762C168.17 58.5284 170.676 61.0866 171.556 64.4149L171.556 64.4157Z" fill="black"/>
<path d="M118.874 7.759C118.117 7.97266 118.439 9.14819 119.2 8.93372C122.689 7.95073 126.369 7.71676 129.918 8.5259C132.955 9.21805 135.795 10.6145 138.259 12.5033C140.474 14.2012 142.409 16.2883 143.951 18.6068C144.665 19.6792 145.295 20.8051 145.823 21.979C146.639 23.789 147.269 25.6787 148.16 27.4562C149.147 29.4254 150.54 31.0494 152.227 32.4613C153.912 33.8708 155.747 35.0967 157.314 36.6435C157.874 37.1967 158.741 36.3356 158.181 35.7815C155.373 33.0113 151.662 31.1858 149.658 27.6674C148.653 25.9037 147.996 23.9751 147.207 22.1131C146.654 20.8092 146.014 19.5549 145.25 18.3599C142.012 13.3035 137.018 9.2018 131.161 7.5819C127.132 6.4673 122.881 6.62978 118.874 7.759Z" fill="black"/>
<path d="M144.862 10.593C146.524 11.8473 147.813 13.4794 148.702 15.3519C149.039 16.0603 150.095 15.4429 149.76 14.737C148.796 12.706 147.365 10.9691 145.571 9.60917C143.785 8.25492 141.722 7.32473 139.62 6.56677C138.877 6.29869 138.557 7.47584 139.294 7.74149C141.259 8.44989 143.189 9.33052 144.862 10.593Z" fill="black"/>
<path d="M123.653 135.426C125.868 139.063 128.545 142.383 130.271 146.305C131.515 149.13 132.259 152.162 132.61 155.22C132.647 155.547 132.865 155.829 133.222 155.829C133.525 155.829 133.873 155.549 133.835 155.22C133.512 152.399 132.9 149.62 131.864 146.971C131.022 144.819 129.932 142.784 128.692 140.834C126.529 137.434 123.915 134.243 122.546 130.409C121.641 127.872 121.325 125.209 121.413 122.525C121.439 121.741 120.214 121.742 120.188 122.525C120.107 124.976 120.349 127.446 121.058 129.8C121.656 131.785 122.576 133.657 123.653 135.426Z" fill="black"/>
<path d="M174.255 69.37C177.975 69.7681 181.74 70.5699 185.018 72.4319C187.934 74.0892 190.652 76.6352 192.189 79.6288C193.991 83.1392 194.216 87.2377 194.282 91.1054C194.315 93.0308 194.291 94.9578 194.353 96.8823C194.431 99.2959 194.579 101.704 194.62 104.119C194.796 114.463 194.041 124.792 193.344 135.105C193.139 138.14 193.341 141.174 193.43 144.209C193.269 144.34 193.18 144.548 193.256 144.808C193.302 144.964 193.371 145.109 193.455 145.248C193.483 146.785 193.465 148.323 193.335 149.861C193.112 152.487 192.583 155.157 191.391 157.53C190.135 160.031 188.167 162.024 185.658 163.29C184.951 163.648 184.216 163.938 183.462 164.185C182.716 164.428 183.036 165.605 183.788 165.359C186.772 164.384 189.402 162.661 191.255 160.115C192.888 157.872 193.784 155.165 194.238 152.455C194.559 150.531 194.683 148.585 194.702 146.637C194.941 146.869 195.179 147.102 195.399 147.351C195.501 147.467 195.635 147.704 195.746 147.922C195.922 148.268 196.071 148.626 196.211 148.987C196.493 149.713 196.75 150.448 197.077 151.155C197.738 152.584 198.904 153.717 199.965 154.86C201.1 156.085 202.257 157.292 203.348 158.556C204.529 159.924 205.64 161.368 206.461 162.982C206.817 163.683 207.874 163.066 207.519 162.367C206.041 159.462 203.694 157.065 201.486 154.702C200.931 154.108 200.377 153.514 199.835 152.909C199.351 152.368 198.842 151.836 198.478 151.206C197.714 149.888 197.408 148.363 196.658 147.037C196.367 146.521 195.914 146.121 195.496 145.709C195.257 145.474 195.018 145.239 194.795 144.988C194.762 144.951 194.727 144.908 194.691 144.864C194.687 144.639 194.682 144.414 194.675 144.189C194.612 141.896 194.409 139.6 194.447 137.305C194.479 135.276 194.698 133.241 194.834 131.216C195.011 128.589 195.184 125.963 195.336 123.334C195.644 118.013 195.868 112.685 195.872 107.354C195.876 102.612 195.557 97.8832 195.529 93.1429C195.506 89.1622 195.483 85.0385 194.182 81.2268C192.974 77.6905 190.466 74.7529 187.464 72.5602C184.518 70.409 181.006 69.2197 177.435 68.5909C176.381 68.4057 175.319 68.2643 174.255 68.1506C173.472 68.0669 173.478 69.2863 174.255 69.3692V69.37Z" fill="black"/>
<path d="M153.804 57.3027C153.88 59.2622 154.921 61.0137 155.867 62.6767C156.476 63.745 157.011 64.8206 157.352 66.0042C157.711 67.2504 157.905 68.5308 158.035 69.8184C158.337 72.8137 158.507 75.7919 159.673 78.6117C159.798 78.9147 160.08 79.1341 160.427 79.0374C160.716 78.957 160.981 78.5954 160.855 78.2875C159.829 75.8065 159.57 73.2101 159.331 70.5658C159.099 67.9905 158.712 65.4542 157.512 63.1292C156.974 62.0885 156.335 61.1023 155.828 60.0462C155.561 59.4913 155.342 58.9153 155.182 58.3207C155.146 58.185 155.113 58.0485 155.088 57.9096C155.079 57.8641 155.072 57.8178 155.065 57.7723C155.065 57.7691 155.065 57.7666 155.064 57.7626C155.06 57.7276 155.056 57.6919 155.052 57.6569C154.955 56.4164 155.137 55.167 155.233 53.9321C155.428 51.4276 155.401 48.9246 155.168 46.4232C155.096 45.649 153.869 45.6417 153.942 46.4232C154.155 48.7117 154.205 51.0084 154.053 53.3017C153.965 54.6284 153.752 55.9712 153.804 57.3027Z" fill="black"/>
<path d="M151.164 99.4054C151.045 99.1 150.751 98.8847 150.41 98.9797C150.116 99.0618 149.862 99.4192 149.982 99.7296C151.409 103.404 152.148 107.331 154.026 110.83C154.398 111.522 155.456 110.907 155.084 110.215C153.259 106.814 152.551 102.98 151.164 99.4054Z" fill="black"/>
<path d="M114.657 90.265C114.975 91.0457 115.648 91.6705 116.297 92.1888C116.971 92.7282 117.696 93.1953 118.417 93.6706C119.14 94.1475 119.861 94.6357 120.47 95.2547C121.007 95.8023 121.424 96.4489 121.763 97.133C122.583 98.7854 122.935 100.668 123.169 102.482C123.405 104.304 123.502 106.14 123.728 107.963C123.769 108.29 123.981 108.572 124.341 108.572C124.641 108.572 124.994 108.292 124.954 107.963C124.548 104.695 124.545 101.324 123.496 98.1688C122.987 96.6382 122.217 95.1629 120.998 94.0711C119.705 92.9126 118.098 92.1717 116.801 91.023C116.299 90.5794 115.761 90.0717 115.681 89.3747C115.598 88.6508 115.828 87.9124 115.961 87.208C116.109 86.4184 116.199 85.6287 116.046 84.8326C115.863 83.887 115.257 83.1087 114.605 82.4255C113.957 81.7472 113.213 81.1736 112.484 80.5863C111.716 79.968 111.005 79.3051 110.325 78.5918C109.229 77.4407 108.184 76.2042 107.479 74.7712C105.976 71.7207 107.115 68.4313 108.403 65.5197C108.537 65.2167 108.49 64.869 108.184 64.6862C107.925 64.5318 107.479 64.6041 107.345 64.9047C106.119 67.6766 104.951 70.7897 105.813 73.8361C106.211 75.2416 106.986 76.4951 107.879 77.6397C109.047 79.1361 110.395 80.4701 111.877 81.657C113.217 82.7293 114.966 83.9674 114.904 85.8619C114.858 87.3193 114.07 88.8279 114.655 90.2642L114.657 90.265Z" fill="black"/>
<path d="M122.773 79.3221C122.021 78.6007 120.884 78.4569 120.201 77.668C119.322 76.6525 118.987 75.2236 118.528 73.9952C118.256 73.2665 117.072 73.5817 117.347 74.3194C117.776 75.4681 118.12 76.6704 118.756 77.7298C119.07 78.2521 119.452 78.7193 119.954 79.0727C120.358 79.3578 120.824 79.5268 121.261 79.7518C122.337 80.3059 122.724 81.4391 122.95 82.5619C123.198 83.8008 123.18 85.0811 123.189 86.3387C123.2 87.7961 123.221 89.2738 123.598 90.6914C123.799 91.4486 124.982 91.1277 124.779 90.3673C124.12 87.8846 124.594 85.2574 124.218 82.7333C124.042 81.5521 123.664 80.1767 122.773 79.3212V79.3221Z" fill="black"/>
<path d="M117.06 115.669C117.315 114.656 117.469 113.614 117.338 112.573C117.255 111.918 116.906 111.421 116.438 110.966C115.289 109.849 113.862 109.022 112.947 107.673C112.436 106.92 112.073 106.055 112.215 105.131C112.372 104.118 112.875 103.193 113.139 102.208C113.486 100.913 113.23 99.7831 112.695 98.5791C112.135 97.3191 111.316 96.2021 110.537 95.0721C110.093 94.4295 109.031 95.0379 109.479 95.687C110.169 96.6863 110.889 97.6733 111.432 98.7619C111.928 99.7538 112.255 100.732 111.972 101.829C111.716 102.82 111.225 103.741 111.043 104.752C110.856 105.787 111.045 106.746 111.523 107.676C112.322 109.233 113.744 110.265 115.052 111.365C115.3 111.574 115.546 111.789 115.767 112.028C115.92 112.196 116.056 112.38 116.093 112.523C116.318 113.404 116.106 114.428 115.891 115.291C115.631 116.334 115.284 117.358 115.209 118.438C115.122 119.686 115.506 120.874 116.187 121.913C116.616 122.567 117.678 121.957 117.246 121.298C116.659 120.402 116.354 119.457 116.438 118.385C116.511 117.459 116.834 116.565 117.059 115.668L117.06 115.669Z" fill="black"/>
<path d="M156.654 30.3768C157.256 30.8748 158.127 30.0169 157.52 29.5149C154.277 26.8356 154.193 22.322 151.781 19.0805C151.582 18.8141 151.252 18.6865 150.943 18.862C150.679 19.0115 150.527 19.4315 150.723 19.6955C151.96 21.3577 152.569 23.3009 153.296 25.2108C154.042 27.1719 155.006 29.0144 156.654 30.3768H156.654Z" fill="black"/>
<path d="M105.723 20.3576C106.737 17.55 108.754 15.2964 110.915 13.2922C111.494 12.7561 110.625 11.8958 110.049 12.4303C107.723 14.5864 105.629 17.0187 104.542 20.0326C104.275 20.7719 105.459 21.0904 105.723 20.3568V20.3576Z" fill="black"/>
<path d="M142.813 96.4951C141.724 100.037 141.197 103.865 143.014 107.257C143.664 108.471 144.533 109.547 145.369 110.636C146.302 111.855 147.189 113.108 147.866 114.489C148.878 116.553 149.361 118.828 149.52 121.109C149.574 121.887 150.8 121.893 150.745 121.109C150.597 118.98 150.204 116.864 149.379 114.887C148.754 113.386 147.914 112.013 146.946 110.709C145.298 108.488 143.455 106.417 143.093 103.638C142.794 101.341 143.322 99.0037 143.994 96.8184C144.226 96.067 143.043 95.7453 142.813 96.4943V96.4951Z" fill="black"/>
<path d="M88.5976 134.295C87.7275 132.05 86.8868 129.794 86.0485 127.537C85.7773 126.807 84.5926 127.123 84.8671 127.861C86.2618 131.617 87.6515 135.378 89.2047 139.073C90.3011 141.681 91.4694 144.279 92.9498 146.698C93.6329 147.814 94.3902 148.883 95.2301 149.889C95.735 150.492 96.5978 149.626 96.097 149.027C94.61 147.248 93.4172 145.198 92.3763 143.117C90.9441 140.255 89.7537 137.277 88.5993 134.296L88.5976 134.295Z" fill="black"/>
<path d="M73.6062 48.9467C73.8186 49.9906 74.223 51.0004 74.5988 51.9956C74.6127 52.0557 74.6381 52.1167 74.6748 52.1784C77.4976 56.8773 80.3678 61.5469 83.2681 66.1986C83.2526 66.2075 83.2363 66.2165 83.2208 66.227C82.1635 66.9273 82.1611 68.3092 82.26 69.44C82.3645 70.631 82.6194 71.8098 82.7052 73.0015C81.1022 71.9202 78.9927 73.2964 79.0385 75.2421C79.0426 75.4086 79.1014 75.5394 79.1904 75.6353C78.9404 75.6824 78.6912 75.7775 78.4576 75.9074C75.9412 77.2991 75.4902 80.287 75.576 82.8956C75.6855 86.2158 76.2933 89.4792 77.2672 92.6516C78.2288 95.7858 79.4306 98.8477 80.2999 102.006C80.0638 101.716 79.5344 101.62 79.2534 102.028C79.2493 102.034 79.246 102.039 79.2427 102.044C79.2092 102.083 79.1757 102.124 79.1422 102.163C79.0238 102.301 78.902 102.437 78.7811 102.572C78.4788 102.911 78.1749 103.248 77.8775 103.591C77.1839 104.387 76.4796 105.205 75.9347 106.111C75.5654 106.725 75.1029 107.682 75.723 108.298C75.7802 108.355 75.8399 108.402 75.9012 108.44C76.527 109.255 77.3293 109.907 77.8064 110.83C78.1667 111.528 79.2248 110.912 78.8645 110.215C78.4805 109.471 77.9004 108.917 77.3644 108.311C79.0466 107.627 80.6431 106.699 82.2216 105.812C84.0345 104.794 85.8336 103.746 87.5942 102.641C89.5698 101.401 91.2732 99.7762 92.676 97.9191C93.2373 99.2222 93.7496 100.648 94.27 101.994C94.9244 103.687 95.5446 105.4 96.2725 107.064C98.159 111.374 100.197 115.606 102.337 119.793C102.337 119.909 102.339 120.023 102.339 120.139C102.339 120.469 102.557 120.66 102.809 120.712C103.026 121.131 103.242 121.551 103.461 121.97C104.86 124.655 106.263 127.339 107.624 130.044C107.977 130.745 109.034 130.129 108.682 129.429C107.01 126.107 105.264 122.824 103.562 119.517C103.542 115.427 103.363 111.338 103.379 107.247C103.396 102.962 103.583 98.6324 104.497 94.4323C104.934 92.4209 105.542 90.4403 106.421 88.5758C106.441 88.6563 106.462 88.7375 106.483 88.8179C106.662 89.506 106.872 90.2006 107.311 90.7725C107.746 91.3388 108.365 91.7734 108.881 92.2657C110.169 93.4965 111.375 94.8385 112.366 96.3203C113.145 97.4853 113.952 98.8615 113.969 100.303C113.979 101.087 115.204 101.088 115.194 100.303C115.179 98.9971 114.638 97.7461 113.998 96.629C113.221 95.2707 112.231 94.0253 111.177 92.8685C110.662 92.3031 110.124 91.7571 109.566 91.2331C109.069 90.7668 108.432 90.355 108.099 89.7514C107.774 89.1632 107.67 88.4727 107.49 87.8325C107.298 87.1485 107.006 86.5725 106.618 85.9827C105.814 84.7617 105.296 83.3652 104.811 81.9971C104.308 80.5762 103.826 79.1464 103.339 77.7199C102.421 75.0284 101.973 72.1908 102.703 69.401C103.515 66.3001 105.414 63.5648 107.08 60.8677C107.493 60.1975 106.434 59.5849 106.022 60.2527C105.05 61.8271 104.027 63.4015 103.16 65.0491C103.133 64.9004 103.05 64.7582 102.892 64.6526C101.703 63.8573 100.575 62.9011 99.8453 61.6565C99.3077 60.7393 99.0471 59.7109 99.016 58.6531C98.9458 56.2866 99.708 53.9616 100.019 51.6325C100.224 50.0946 100.205 48.56 100.165 47.0116C100.116 45.0968 100.015 43.1836 99.9384 41.2705C99.7832 37.4141 99.7244 33.5227 100.371 29.7037C101.154 25.0682 102.732 20.5107 105.1 16.4382C107.497 12.3161 110.769 8.70182 114.802 6.1103C119.499 3.09228 124.988 1.58692 130.544 1.28309C131.333 1.24003 132.122 1.22054 132.911 1.21972C134.718 1.2246 136.524 1.37895 138.26 1.89888C139.51 2.27258 140.668 2.84694 141.802 3.48304C143.01 4.15976 144.253 4.77961 145.452 5.46933C146.967 6.34021 148.365 7.39469 149.649 8.57427C152.375 11.0772 154.606 14.0928 156.334 17.3513C158.057 20.6017 159.305 24.1518 159.705 27.8157C159.961 30.1537 159.953 32.508 160.082 34.8542C160.168 36.4311 160.302 37.9291 160.901 39.4028C161.411 40.6612 162.07 41.8513 162.67 43.0675C163.356 44.4558 163.946 45.8832 164.336 47.3829C164.823 49.253 165.035 51.2035 164.813 53.1281C164.602 54.9657 164.013 56.7424 163.429 58.4898C162.872 60.1585 162.296 61.8328 162.054 63.5811C161.808 65.3635 162.026 67.1223 162.448 68.8632C163.307 72.4012 165.085 75.7831 165.222 79.4714C165.348 82.8842 163.775 86.1533 161.514 88.6628C161.053 89.1746 160.553 89.6596 159.951 90.0032C159.817 90.0796 159.734 90.1811 159.691 90.2916C159.64 90.4037 159.626 90.5386 159.669 90.6913C160.981 95.2545 161.509 99.9769 161.078 104.709C160.765 108.139 159.91 111.461 159.145 114.809C158.796 116.336 158.476 117.884 158.39 119.451C158.347 120.235 159.572 120.232 159.615 119.451C159.775 116.579 160.702 113.695 161.321 110.853C162.173 106.944 162.642 102.963 162.382 98.9606C162.202 96.2001 161.71 93.4672 160.972 90.8018C162.183 89.9772 163.121 88.7172 163.915 87.523C164.834 86.1411 165.635 84.6366 166.058 83.0264C167.05 79.2447 165.879 75.5955 164.678 72.0185C164.071 70.211 163.471 68.3734 163.24 66.474C163.024 64.6867 163.326 62.9612 163.829 61.2455C164.345 59.4801 165.013 57.7611 165.487 55.9828C165.993 54.0851 166.246 52.1418 166.059 50.1815C165.883 48.3277 165.454 46.5152 164.77 44.7824C164.214 43.3737 163.513 42.0357 162.832 40.6839C162.28 39.588 161.753 38.4669 161.522 37.2556C161.329 36.2426 161.317 35.1784 161.271 34.1507C161.218 32.9776 161.189 31.8037 161.135 30.6306C161.031 28.3982 160.803 26.1763 160.247 24.0064C159.798 22.2565 159.18 20.5546 158.445 18.9046C156.913 15.4593 154.819 12.2365 152.258 9.45734C150.998 8.08928 149.611 6.83901 148.105 5.74229C146.768 4.76824 145.318 4.04765 143.876 3.25232C142.748 2.63084 141.648 1.95737 140.47 1.43257C139.021 0.787532 137.512 0.384588 135.938 0.182303C134.933 0.0531336 133.922 0.00439029 132.91 0.00195312C126.959 0.0108894 120.981 1.20916 115.755 4.11751C111.358 6.56442 107.691 10.1373 104.958 14.3333C102.36 18.3221 100.594 22.8382 99.5642 27.4696C98.7472 31.1449 98.5495 34.8908 98.628 38.6456C98.6696 40.6319 98.7734 42.6166 98.8551 44.6013C98.9302 46.4324 99.0471 48.2887 98.9409 50.1206C98.7954 52.6309 98.0062 55.0477 97.8175 57.5507C97.7325 58.6775 97.806 59.84 98.1696 60.9173C98.5895 62.1618 99.3535 63.2512 100.3 64.1579C100.904 64.7355 101.577 65.2416 102.271 65.7063C102.459 65.8322 102.643 65.8346 102.796 65.7656C102.433 66.5073 102.105 67.2645 101.835 68.0443C100.902 70.7333 100.93 73.5523 101.63 76.2933C102.018 77.8157 102.598 79.2862 103.097 80.7753C103.59 82.2473 104.093 83.7226 104.753 85.1305C105.044 85.7495 105.381 86.3304 105.762 86.8974C105.827 86.9933 105.884 87.0916 105.936 87.1915C105.799 87.2248 105.673 87.3166 105.588 87.4856C103.7 91.2429 102.885 95.4186 102.485 99.5707C102.057 104.014 102.119 108.489 102.215 112.947C102.244 114.316 102.278 115.684 102.302 117.052C102.063 116.578 101.825 116.104 101.59 115.627C100.293 113.004 99.0585 110.352 97.8698 107.68C97.6982 107.295 97.5283 106.909 97.3583 106.523C97.3256 106.448 97.293 106.374 97.2603 106.299C97.2505 106.275 97.199 106.153 97.1876 106.124C97.0462 105.783 96.9106 105.439 96.775 105.096C96.4 104.144 96.0331 103.188 95.6638 102.234C94.9449 100.371 94.2806 98.4618 93.4367 96.6485C93.4693 96.5819 93.493 96.5064 93.5012 96.4202C93.636 95.0376 94.3035 93.7727 94.6883 92.4534C95.0421 91.2388 95.3378 90.0016 95.6066 88.7659C95.7161 88.2606 95.8191 87.7513 95.9098 87.2394C95.98 87.3386 96.0519 87.4377 96.1214 87.5376C96.5086 88.0957 96.8885 88.6595 97.2693 89.2217C98.0879 90.4289 98.891 91.6523 99.7718 92.8165C100.068 93.2081 100.373 93.728 100.907 93.7881C101.115 93.8117 101.304 93.6825 101.416 93.5078C101.45 93.4948 101.483 93.4794 101.514 93.4591C101.903 93.2138 102.246 92.9075 102.571 92.585C102.78 92.3778 102.81 92.0106 102.624 91.7807C102.607 91.7409 102.584 91.7011 102.555 91.6613C100.487 88.7838 98.4041 85.9177 96.5879 82.872C96.4964 82.7193 96.3714 82.6332 96.2374 82.5983C96.1197 80.8191 95.6589 79.1009 94.9686 77.4567C94.1393 75.4826 93.0208 73.6799 91.9807 71.8146C91.569 71.077 91.1392 70.3515 90.6155 69.6854C90.5918 69.6553 90.5673 69.6252 90.5428 69.5952C90.5436 69.5456 90.5404 69.4945 90.5322 69.4441C90.2577 67.7519 89.3091 66.1596 87.4055 66.1409C87.104 66.1377 86.9185 66.3139 86.8475 66.5325C85.9406 64.9597 84.979 63.4162 84.0304 61.8718C82.4095 59.234 80.7632 56.6116 79.1169 53.9892C78.4527 52.9315 77.7868 51.8746 77.1283 50.8136C77.1022 50.7713 77.0727 50.734 77.0417 50.7015C77.0384 50.6982 77.036 50.6942 77.0327 50.6901C76.2182 49.7932 75.5041 48.7899 74.625 47.9532C74.1209 47.473 73.3831 48.0921 73.6168 48.6177C73.5849 48.7136 73.5759 48.8232 73.6005 48.9435L73.6062 48.9467ZM80.2632 75.2429C80.2403 74.2827 81.2575 73.3533 82.1088 74.0763C82.4903 74.7693 82.9773 75.6264 82.9136 76.4355C82.8997 76.6134 82.8408 76.758 82.6995 76.8783C82.5296 77.0229 82.1962 77.1236 81.9135 77.1813C81.6725 77.23 81.5385 77.3787 81.492 77.5542C81.2558 76.9936 80.9585 76.4152 80.5548 76.0212C80.4021 75.8725 80.2362 75.7677 80.0622 75.6995C80.1864 75.602 80.2689 75.4501 80.264 75.2421L80.2632 75.2429ZM77.2149 107.058C77.1455 107.089 77.0752 107.119 77.0058 107.149C77.0009 107.152 76.9894 107.157 76.978 107.162C76.9518 107.172 76.9069 107.191 76.8987 107.194C76.8399 107.217 76.7803 107.236 76.7206 107.254C76.7312 107.227 76.7394 107.204 76.7394 107.202C76.777 107.119 76.8187 107.038 76.862 106.959C77.3571 106.043 78.0646 105.236 78.746 104.455C79.264 103.86 79.8653 103.296 80.3138 102.645C80.3669 102.567 80.3988 102.49 80.4127 102.416C80.5973 103.112 80.7656 103.812 80.9094 104.521C80.9585 104.763 81.1104 104.897 81.2902 104.941C80.1047 105.608 78.9061 106.257 77.6798 106.843C77.5262 106.917 77.3718 106.989 77.2157 107.059L77.2149 107.058ZM96.0372 87.0112C96.0356 87.0071 96.0094 86.9957 95.9702 86.9819C96.1116 86.99 96.257 86.9576 96.3787 86.8771C96.3648 86.895 96.3509 86.9129 96.3371 86.9307C96.2366 86.9576 96.1369 86.9844 96.0364 87.012L96.0372 87.0112ZM100.105 91.1942C100.254 91.1162 100.402 91.0349 100.545 90.948C100.813 91.3209 101.081 91.6946 101.35 92.0675C101.331 92.0845 101.313 92.1016 101.295 92.1187C101.263 92.1463 101.23 92.1739 101.197 92.2015C101.189 92.2088 101.164 92.2291 101.155 92.2365C101.094 92.2836 101.03 92.3266 100.965 92.368C100.932 92.3266 100.902 92.2876 100.895 92.2803C100.813 92.1731 100.732 92.0642 100.652 91.9554C100.466 91.7035 100.285 91.4484 100.105 91.1933V91.1942ZM99.8322 89.9512C99.6917 90.0324 99.5495 90.1096 99.4049 90.1844C99.3943 90.1689 99.3837 90.1535 99.3731 90.1381C98.5512 88.9398 97.7587 87.7196 96.9122 86.5375C96.7889 86.3653 96.6688 86.1736 96.5201 86.0225C96.404 85.9039 96.2676 85.8364 96.1295 85.8153C96.1769 85.4254 96.2137 85.0346 96.239 84.6431C97.373 86.4547 98.5912 88.2103 99.8322 89.952V89.9512ZM90.6572 71.9552C92.4734 75.1064 94.569 78.3349 94.9686 82.0329C95.1622 83.8258 94.9784 85.6285 94.6442 87.3938C94.4318 88.5165 94.1654 89.6295 93.8819 90.7368C93.5535 92.0171 93.1058 93.2357 92.6964 94.49C92.4946 95.1066 92.3533 95.7289 92.2863 96.3739C92.2798 96.3829 92.2724 96.391 92.2667 96.4007C91.3271 97.7883 90.1702 99.0426 88.9284 100.168C88.725 100.352 88.5166 100.531 88.3058 100.707C88.3418 100.676 88.1964 100.791 88.1277 100.839C87.9096 100.992 87.6857 101.137 87.4619 101.282C85.9095 102.281 84.3131 103.214 82.7118 104.132C82.5018 104.252 82.2918 104.373 82.0818 104.492C82.1064 104.404 82.1121 104.304 82.09 104.196C80.8065 97.8866 77.6577 92.0658 77.0098 85.6122C76.7917 83.4358 76.4314 80.9036 77.3685 78.8394C77.5858 78.36 77.8783 77.923 78.2599 77.5566C78.4412 77.3819 78.6357 77.2308 78.8489 77.096C79.0213 76.9879 79.2958 76.7751 79.5148 76.8019C79.7803 76.8336 79.9184 77.2154 80.0279 77.4112C80.1978 77.7142 80.3612 78.0245 80.4944 78.3462C80.6668 78.763 80.8114 79.2106 80.8098 79.616C80.8098 79.7744 80.7967 79.8654 80.7567 79.9539C80.7877 79.8857 80.6553 80.0856 80.7281 80.0059C80.7101 80.0263 80.6864 80.0531 80.6692 80.0726C80.6129 80.1172 80.5687 80.1099 80.6439 80.0864C80.6047 80.0986 80.5663 80.1091 80.5271 80.118C80.5573 80.1075 80.4127 80.1245 80.3694 80.1245C80.3392 80.1245 80.3228 80.1262 80.313 80.1278C80.3032 80.1237 80.2869 80.1181 80.2591 80.1091C79.7248 79.9499 79.2354 79.5689 79.0303 79.0457C78.911 78.7402 78.6185 78.525 78.2762 78.62C77.9829 78.7021 77.7272 79.0603 77.8481 79.3698C78.17 80.1895 78.7746 80.8541 79.6063 81.1798C80.2673 81.439 81.0728 81.4122 81.59 80.8752C82.2502 80.1887 82.0655 79.0961 81.7738 78.2764C81.898 78.3584 82.0565 78.3974 82.2403 78.36C82.4699 78.3137 82.6954 78.2439 82.9062 78.1504C83.2061 78.8572 83.1399 79.6777 83.3923 80.4032C83.6489 81.14 84.8327 80.8232 84.5737 80.0791C84.2592 79.1749 84.3425 78.213 83.8768 77.3494C83.9855 77.1715 84.0647 76.97 84.1039 76.7418C84.2494 75.8969 83.9553 75.0341 83.5762 74.2469C83.7919 74.1738 83.9634 73.9894 83.961 73.6945C83.952 72.4109 83.6775 71.1477 83.5312 69.8763C83.4667 69.3125 83.4054 68.7276 83.4667 68.1597C83.5059 67.7941 83.6162 67.4302 83.8409 67.2815C83.8662 67.2644 83.8891 67.2466 83.9111 67.2279C84.6955 68.4838 85.4814 69.739 86.2698 70.9925C86.1922 71.1144 86.1555 71.2663 86.1881 71.4426C86.7625 74.5053 87.5705 77.5217 88.0526 80.6022C88.1032 80.9264 88.5134 81.1092 88.8067 81.0279C89.1555 80.9304 89.2862 80.6063 89.2348 80.2781C88.9562 78.5014 88.5697 76.7458 88.1825 74.9903C88.1939 75.0122 88.2053 75.0349 88.2168 75.0569C88.5763 75.7604 88.9537 76.455 89.3197 77.1561C89.475 77.4534 89.6286 77.7524 89.7732 78.0554C89.9186 78.3584 89.966 78.4543 90.0616 78.7175C90.0984 78.819 90.1335 78.9214 90.1613 79.0262C90.1711 79.0652 90.1784 79.105 90.189 79.1432C90.1907 79.1481 90.1915 79.1513 90.1923 79.1546C90.1833 79.3268 90.2054 79.287 90.1637 79.4186C90.1122 79.5811 90.0918 79.6355 90.0085 79.789C89.5959 80.5486 88.9676 81.1847 88.4112 81.8387C87.7699 82.5926 87.1187 83.3741 86.6784 84.2653C86.1465 85.3425 86.0631 86.4888 86.1857 87.6733C86.2592 88.3825 86.3981 89.0779 86.5991 89.7619C86.8197 90.5134 88.0027 90.1933 87.7805 89.4378C87.4406 88.2785 87.1677 86.8966 87.4447 85.6959C87.6424 84.8388 88.1637 84.0793 88.7021 83.396C89.2813 82.6608 89.9252 81.9784 90.4979 81.2383C90.9317 80.677 91.4007 80.0124 91.4186 79.2748C91.4301 78.7914 91.2283 78.3275 91.0396 77.8929C90.7871 77.3129 90.4905 76.7523 90.1956 76.1926C89.5028 74.879 88.7593 73.5718 88.2397 72.1778C88.0272 71.6075 87.8336 70.9779 87.8132 70.4685C87.8083 70.3475 87.8107 70.2264 87.823 70.1054C87.823 70.1021 87.823 70.1005 87.823 70.0997C87.8254 70.0907 87.8279 70.0794 87.8328 70.0615C87.8483 69.9965 87.8646 69.9331 87.8859 69.8698C87.8908 69.8551 87.8941 69.8438 87.8965 69.8357C87.8949 69.8422 87.8949 69.8454 87.899 69.8381C87.9259 69.7893 87.9521 69.7422 87.9831 69.6959C87.8949 69.8267 88.1857 69.5278 88.0673 69.6106C88.2928 69.453 88.3687 69.44 88.5828 69.5075C88.814 69.5789 89.082 69.8023 89.2871 70.0103C89.8467 70.5757 90.265 71.2711 90.6596 71.956L90.6572 71.9552ZM80.7485 79.9799C80.7485 79.9799 80.7419 79.9873 80.7379 79.9921C80.7411 79.9881 80.7444 79.9848 80.7485 79.9799ZM87.4112 67.3636C88.1629 67.3709 88.6277 67.7828 88.9227 68.3392C88.8532 68.3189 88.7838 68.3011 88.7119 68.2889C88.4219 68.2393 88.1326 68.2669 87.8655 68.3571C87.6865 68.0216 87.5035 67.6885 87.3181 67.3562C87.3483 67.3603 87.3793 67.3636 87.412 67.3644L87.4112 67.3636ZM84.9986 65.8216C85.6375 66.8932 86.2756 67.968 86.8605 69.0696C86.8712 69.0891 86.8818 69.1069 86.8932 69.1248C86.8311 69.2239 86.7797 69.3287 86.738 69.4376C83.8997 64.915 81.081 60.3795 78.3048 55.8179C77.4494 54.4125 76.5981 53.0038 75.7508 51.5935C75.6324 51.2815 75.5131 50.9688 75.3971 50.6535C75.6299 50.9346 75.8644 51.2133 76.1062 51.483C79.072 56.2615 82.117 60.9912 84.9986 65.8216Z" fill="black"/>
<path d="M101.486 167.068C101.487 167.07 101.488 167.072 101.489 167.073C101.489 167.071 101.487 167.069 101.486 167.068Z" fill="black"/>
<path d="M13.7164 165.81C12.3324 167.756 11.7107 170.082 10.6575 172.198C10.3087 172.898 11.3659 173.516 11.7156 172.813C12.7687 170.697 13.3913 168.371 14.7745 166.425C15.2304 165.783 14.1682 165.174 13.7164 165.81Z" fill="black"/>
<path d="M19.5731 163.556C19.3623 163.342 18.9113 163.299 18.7063 163.556C16.4481 166.4 14.7291 169.574 13.104 172.805C12.7519 173.505 13.8091 174.122 14.1621 173.42C15.7364 170.292 17.3844 167.174 19.5723 164.418C19.779 164.158 19.8231 163.811 19.5723 163.556H19.5731Z" fill="black"/>
<path d="M22.5866 162.008C21.0686 164.213 19.6405 166.476 18.1511 168.7C17.7124 169.355 18.7736 169.966 19.2091 169.315C20.6985 167.091 22.1267 164.827 23.6447 162.623C24.0916 161.975 23.0295 161.364 22.5866 162.008Z" fill="black"/>
<path d="M129.282 177.967C129.136 178.056 128.972 178.117 128.815 178.185C128.807 178.188 128.802 178.191 128.796 178.193C128.786 178.197 128.775 178.202 128.759 178.208C128.682 178.24 128.604 178.272 128.526 178.303C128.351 178.374 128.176 178.443 128.001 178.513C126.975 178.917 125.942 179.306 124.909 179.694C121.752 180.878 118.582 182.035 115.413 183.188C111.684 184.545 107.952 185.891 104.217 187.233C101.016 188.382 97.8132 189.529 94.6073 190.668C93.5444 191.045 92.4806 191.422 91.4161 191.797C90.912 191.974 90.3637 192.11 89.8768 192.33C89.9315 192.332 90.0067 192.34 90.1105 192.359C89.3392 192.22 89.0083 193.395 89.7845 193.534C90.2093 193.61 90.7175 193.331 91.1056 193.195C92.0337 192.871 92.961 192.543 93.8875 192.213C96.966 191.122 100.042 190.022 103.116 188.919C106.87 187.573 110.621 186.221 114.368 184.861C117.687 183.656 121.004 182.447 124.312 181.214C126.117 180.541 127.991 179.935 129.732 179.105C129.789 179.078 129.846 179.051 129.9 179.02C130.573 178.613 129.958 177.559 129.281 177.967H129.282Z" fill="black"/>
<path d="M89.872 192.333C89.872 192.333 89.8752 192.331 89.8777 192.331C89.6922 192.324 89.7559 192.386 89.872 192.333Z" fill="black"/>
<path d="M133.413 173.682C132.815 173.253 132.06 173.024 131.364 172.81C130.439 172.526 129.497 172.297 128.56 172.06C127.632 171.826 126.702 171.594 125.787 171.308C126.001 169.552 125.675 167.755 125.13 166.083C124.475 164.07 123.501 162.137 122.27 160.411C121.915 159.913 121.537 159.428 121.131 158.967C123.564 158.611 126.001 158.286 128.436 157.947C131.922 157.463 135.407 156.965 138.886 156.434C142.66 155.857 146.429 155.244 150.183 154.55C153.547 153.928 156.907 153.253 160.217 152.392C162.501 151.798 164.906 151.169 166.983 150.018C167.15 149.925 167.314 149.826 167.475 149.721C167.529 149.685 167.573 149.645 167.611 149.602C167.64 149.572 167.668 149.54 167.694 149.503C167.707 149.485 167.769 149.403 167.774 149.394C167.823 149.335 167.872 149.278 167.923 149.221C168.062 149.065 168.207 148.915 168.354 148.766C168.691 148.42 169.034 148.081 169.366 147.73C170.149 146.901 170.905 146 171.407 144.969C171.969 143.813 172.1 142.687 171.884 141.431C171.755 140.682 171.871 139.895 171.943 139.145C172.025 138.293 172.026 137.448 172.026 136.593C172.026 129.342 172.034 122.089 172.38 114.845C172.575 110.755 172.881 106.67 173.353 102.603C173.391 102.276 173.044 101.994 172.74 101.994C172.377 101.994 172.166 102.275 172.127 102.603C171.298 109.748 170.986 116.941 170.87 124.13C170.812 127.709 170.802 131.289 170.801 134.869C170.801 135.757 170.801 136.644 170.801 137.532C170.801 138.335 170.708 139.124 170.645 139.923C170.587 140.665 170.66 141.33 170.765 142.06C170.842 142.603 170.775 143.154 170.615 143.675C170.257 144.848 169.452 145.845 168.627 146.732C168.008 147.399 167.283 148.007 166.74 148.742C166.435 148.935 166.115 149.105 165.788 149.261C165.591 149.356 165.28 149.494 165.156 149.546C165.153 149.546 164.951 149.629 164.87 149.661C164.735 149.715 164.6 149.767 164.465 149.817C163.276 150.264 162.057 150.63 160.832 150.966C157.632 151.844 154.375 152.518 151.116 153.139C147.376 153.851 143.619 154.474 139.856 155.059C136.324 155.608 132.785 156.119 129.244 156.614C126.602 156.984 123.957 157.338 121.317 157.717C121.085 157.751 120.853 157.784 120.621 157.818C120.469 157.841 120.348 157.943 120.271 158.075C120.236 158.042 120.202 158.007 120.166 157.975C120.139 157.951 120.112 157.931 120.086 157.912C120.072 157.901 120.057 157.891 120.041 157.88C119.341 157.41 118.719 156.791 118.113 156.197C117.875 155.962 117.639 155.725 117.405 155.486C119.38 153.764 120.117 150.865 120.612 148.41C121.265 145.166 121.502 141.846 121.679 138.548C121.754 137.153 121.803 135.755 121.909 134.361C121.969 133.579 120.743 133.583 120.684 134.361C120.477 137.061 120.421 139.769 120.188 142.467C119.924 145.515 119.558 148.655 118.483 151.541C118.063 152.669 117.427 153.912 116.561 154.619C116.349 154.4 116.139 154.181 115.926 153.963C115.35 153.37 114.777 152.758 114.136 152.233C113.423 151.649 112.505 151.332 111.591 151.214C111.916 150.996 112.04 150.436 111.605 150.15C110.74 149.581 109.798 148.975 108.74 148.864C107.973 148.784 107.24 149.061 106.528 149.308C103.885 150.222 101.097 150.408 98.4004 151.096C97.4919 151.328 96.4862 151.564 95.7133 152.121C95.1577 152.521 94.652 152.989 94.1626 153.465C92.8308 154.76 91.5939 156.153 90.3684 157.545C89.2956 158.763 88.2564 160.012 87.1649 161.213C86.8225 156.111 86.4737 151.009 86.1093 145.908C85.6485 139.444 85.1681 132.982 84.6117 126.526C84.3846 123.894 84.2187 121.249 83.7637 118.644C83.5578 117.466 83.3233 116.19 82.7203 115.138C81.9131 113.731 80.1419 113.173 78.6247 112.989C77.7635 112.884 76.8967 112.886 76.0307 112.896C75.0102 112.69 73.9554 112.606 72.9219 112.496C70.9848 112.29 69.0444 112.114 67.1048 111.943C64.483 111.711 61.8604 111.494 59.2378 111.282C56.1667 111.034 53.0947 110.795 50.0219 110.559C46.7343 110.307 43.4466 110.06 40.159 109.817C36.8762 109.575 33.5926 109.335 30.3091 109.098C27.2927 108.88 24.2763 108.664 21.2599 108.45C18.7304 108.271 16.2001 108.093 13.6707 107.916C11.861 107.789 10.0521 107.663 8.24243 107.538C7.38947 107.479 6.53161 107.388 5.6762 107.361C5.64924 107.36 5.62228 107.358 5.59531 107.355C3.91309 107.115 2.19165 107.439 1.08868 108.832C0.241441 109.903 -0.104971 111.338 0.0273844 112.684C0.530663 117.815 1.17774 122.938 1.75209 128.061C2.60015 135.631 3.44821 143.202 4.27993 150.773C4.79546 155.47 5.30854 160.166 5.78241 164.866C6.05774 167.595 6.32572 170.326 6.52262 173.061C6.66723 175.064 6.56592 177.863 8.86091 178.649C9.61583 178.907 10.4655 179 11.2441 179.166C14.7802 179.918 18.3145 180.68 21.8489 181.44C27.1072 182.572 32.3639 183.705 37.6213 184.839C43.3543 186.076 49.0864 187.311 54.8202 188.546C59.679 189.592 64.5378 190.639 69.3982 191.679C72.1311 192.264 74.8623 192.86 77.6009 193.419C77.7913 193.458 77.9817 193.499 78.1737 193.532C79.8992 193.884 81.5863 194.376 83.3396 194.591C84.9704 194.791 86.9843 194.804 88.2286 193.553C88.7703 193.008 89.0538 192.307 89.178 191.572C89.3283 191.765 89.5938 191.894 89.8267 191.797C91.7695 190.999 93.759 190.323 95.7598 189.683C97.7909 189.034 99.7885 188.298 101.793 187.574C105.353 186.29 108.913 185.007 112.473 183.724C117.534 181.9 122.597 180.083 127.647 178.23C129.088 177.702 130.531 177.177 131.959 176.615C132.654 176.326 133.549 175.986 133.935 175.286C134.277 174.666 133.935 174.056 133.413 173.682H133.413ZM132.836 174.73C132.83 174.733 132.832 174.732 132.836 174.73V174.73ZM96.8031 152.878C96.8031 152.878 96.8048 152.877 96.8031 152.878V152.878ZM87.9116 162.209C90.0808 159.837 92.0906 157.327 94.3366 155.022C94.8554 154.49 95.3832 153.964 95.9494 153.482C96.0499 153.396 96.152 153.311 96.2566 153.229C96.2598 153.227 96.2631 153.224 96.268 153.221C96.2893 153.205 96.3105 153.189 96.3326 153.174C96.3865 153.136 96.4412 153.097 96.4968 153.06C96.5809 153.005 96.67 152.959 96.7549 152.907C96.7647 152.901 96.7729 152.896 96.7803 152.892C96.9584 152.817 97.1438 152.754 97.326 152.69C100.048 151.742 102.968 151.646 105.727 150.847C106.248 150.696 106.758 150.514 107.272 150.339C107.611 150.224 108.033 150.09 108.303 150.073C109.23 150.015 110.171 150.666 110.966 151.19C109.924 151.244 108.95 151.768 107.99 152.146C107.684 152.267 107.466 152.554 107.562 152.896C107.644 153.187 108.006 153.443 108.316 153.322C109.221 152.965 110.21 152.371 111.213 152.401C111.74 152.417 112.259 152.603 112.745 152.793C112.874 152.843 112.982 152.894 113.097 152.967C113.244 153.062 113.187 153.026 113.341 153.155C114.719 154.317 115.893 155.723 117.174 156.987C117.85 157.655 118.546 158.326 119.331 158.869C121.074 160.477 122.365 162.582 123.314 164.734C124.068 166.445 124.695 168.43 124.645 170.351C124.473 170.204 124.227 170.149 123.971 170.298C123.065 170.826 122.01 171.1 120.974 171.231C119.885 171.368 118.739 171.373 117.667 171.119C117.112 170.987 116.616 170.744 116.095 170.519C115.509 170.266 114.943 170.144 114.309 170.082C113.136 169.967 111.947 169.941 110.794 169.675C110.163 169.53 109.569 169.313 109.031 168.949C108.436 168.545 107.949 167.999 107.466 167.472C108.441 167.13 109.41 166.769 110.4 166.481C110.848 166.351 111.405 166.207 111.805 166.152C112.005 166.126 112.21 166.112 112.411 166.115C112.502 166.117 112.593 166.121 112.683 166.131C112.684 166.135 112.835 166.165 112.858 166.171C113.366 166.314 113.774 166.811 114.131 167.204C114.624 167.746 115.125 168.29 115.783 168.635C116.48 169.001 117.1 167.95 116.402 167.583C115.355 167.034 114.814 165.887 113.813 165.272C113.119 164.845 112.312 164.856 111.533 164.97C109.647 165.247 107.858 166.075 106.057 166.656C105.188 166.936 104.291 167.212 103.38 167.313C103.012 167.354 102.572 167.37 102.24 167.323C102.128 167.307 101.928 167.26 101.787 167.213C101.67 167.174 101.697 167.183 101.629 167.15C101.602 167.136 101.54 167.109 101.503 167.09C101.512 167.023 101.489 167.016 101.501 166.955C101.536 166.771 101.619 166.604 101.712 166.443C101.922 166.073 102.19 165.741 102.493 165.442C102.814 165.126 103.101 165.008 103.578 164.776C104.268 164.441 104.964 164.114 105.666 163.802C108.888 162.371 112.309 161.211 115.844 160.906C116.623 160.839 116.63 159.62 115.844 159.688C112.482 159.977 109.253 160.973 106.156 162.272C105.395 162.591 104.641 162.926 103.893 163.277C103.307 163.552 102.641 163.792 102.113 164.168C101.511 164.597 100.938 165.239 100.588 165.931C98.6741 166.773 97.5826 168.504 96.1103 169.901C95.7778 170.216 95.4069 170.559 94.9902 170.762C94.6348 170.935 94.1364 170.751 93.8431 170.524C93.2508 170.066 93.4943 169.269 93.7451 168.686C94.1258 167.801 94.7141 167.023 95.201 166.196C95.3407 165.96 95.3023 165.731 95.1757 165.562C95.6283 165.123 96.085 164.689 96.5474 164.26C98.813 162.16 101.272 160.275 104.119 159.022C105.879 158.248 107.753 157.749 109.646 157.431C110.422 157.3 110.093 156.126 109.32 156.256C105.982 156.817 102.81 158.019 100.002 159.908C97.2509 161.759 94.8873 164.104 92.5604 166.443C91.0359 167.975 89.5179 169.513 87.9525 171.005C87.8969 171.058 87.8561 171.113 87.8258 171.17C87.7474 169.982 87.6681 168.795 87.5897 167.608C87.6763 167.586 87.7621 167.542 87.843 167.473C90.0563 165.57 91.7957 163.15 93.6666 160.931C94.5351 159.9 95.4216 158.861 96.4396 157.973C97.4118 157.124 98.3873 156.856 99.6039 156.399C101.637 155.635 103.676 154.875 105.75 154.226C106.5 153.991 106.18 152.815 105.424 153.051C103.552 153.637 101.711 154.313 99.8751 155.001C98.554 155.496 97.1406 155.869 96.0155 156.747C95.0041 157.535 94.1422 158.507 93.3072 159.474C92.2982 160.643 91.3341 161.85 90.3422 163.034C89.4402 164.109 88.5211 165.187 87.4917 166.148C87.4067 164.876 87.3217 163.605 87.2368 162.333C87.4427 162.444 87.7008 162.437 87.9083 162.211L87.9116 162.209ZM101.477 167.044C101.48 167.053 101.483 167.061 101.486 167.067C101.515 167.07 101.503 167.095 101.489 167.071C101.491 167.076 101.494 167.081 101.495 167.086C101.475 167.075 101.466 167.066 101.484 167.066C101.484 167.066 101.485 167.066 101.485 167.066C101.482 167.061 101.48 167.053 101.476 167.044L101.477 167.044ZM85.7204 193.413C84.2048 193.648 82.4556 193.268 80.9262 192.92C80.1165 192.735 79.3126 192.524 78.4988 192.359C76.4996 192.016 74.5159 191.53 72.533 191.107C68.14 190.169 63.7485 189.224 59.3571 188.28C53.8071 187.085 48.258 185.889 42.708 184.692C37.2488 183.515 31.7895 182.338 26.3302 181.161C22.2092 180.273 18.089 179.385 13.9664 178.504C12.794 178.253 11.6216 178.002 10.4475 177.755C10.1575 177.694 9.86747 177.634 9.57661 177.574C8.16236 177.281 7.91726 175.748 7.84291 174.518C7.7032 172.196 7.49405 169.878 7.27182 167.563C6.88538 163.535 6.45399 159.51 6.01853 155.487C5.30773 148.925 4.57568 142.366 3.84283 135.806C3.33873 131.291 2.83218 126.778 2.32645 122.264C2.03723 119.684 1.74801 117.104 1.45797 114.523C1.28558 112.987 0.954692 111.454 1.74066 110.045C2.49067 108.7 3.93923 108.318 5.40087 108.551C5.42292 108.554 5.4458 108.557 5.46786 108.559C5.49891 108.566 5.52995 108.57 5.56427 108.573C6.14843 108.613 6.73178 108.653 7.31594 108.693C8.91156 108.804 10.5072 108.914 12.1028 109.025C14.4762 109.191 16.8505 109.358 19.2239 109.525C22.1422 109.731 25.0598 109.939 27.9773 110.149C31.1923 110.38 34.4064 110.614 37.6205 110.849C40.9261 111.092 44.2318 111.338 47.5366 111.588C50.6862 111.827 53.8357 112.07 56.9845 112.32C59.7444 112.54 62.5042 112.764 65.2624 113C67.3989 113.184 69.5362 113.372 71.6703 113.585C72.4293 113.661 73.1875 113.74 73.9448 113.827C74.2381 113.862 74.5306 113.897 74.8231 113.935C74.837 113.936 74.8484 113.938 74.8582 113.939C74.8607 113.939 74.8623 113.939 74.8648 113.94C74.9244 113.948 74.9841 113.957 75.0437 113.965C75.1499 113.98 75.2561 113.996 75.3623 114.012C75.4996 114.034 75.636 114.056 75.7717 114.084C75.8346 114.104 75.904 114.116 75.9824 114.115C77.6769 114.093 79.6696 114.026 81.0855 115.117C81.2162 115.218 81.3388 115.333 81.454 115.451C81.4621 115.459 81.4956 115.498 81.5112 115.516C81.5283 115.538 81.5455 115.562 81.5602 115.585C81.6607 115.744 81.8061 116.022 81.8478 116.12C82.0741 116.653 82.2195 117.223 82.3478 117.786C82.945 120.404 83.0904 123.106 83.3192 125.772C83.847 131.944 84.3241 138.121 84.7694 144.3C85.2563 151.062 85.7147 157.827 86.1657 164.593C86.5423 170.237 86.91 175.882 87.298 181.525C87.4998 184.463 87.6183 187.431 87.986 190.355C87.999 190.459 88.0129 190.563 88.0293 190.667C88.0203 191.405 87.8626 192.161 87.4059 192.644C86.977 193.098 86.4042 193.306 85.7204 193.412V193.413ZM132.693 174.875C132.441 175.078 131.982 175.295 131.632 175.441C128.395 176.714 125.106 177.867 121.836 179.051C115.527 181.334 109.214 183.604 102.904 185.881C100.666 186.688 98.4404 187.556 96.1724 188.273C93.9232 188.984 91.6813 189.725 89.4991 190.622C89.4067 190.661 89.3218 190.713 89.2515 190.778C89.2532 190.733 89.254 190.687 89.2548 190.643C89.2548 190.57 89.2458 190.505 89.227 190.447C89.2213 190.416 89.2164 190.384 89.2115 190.354C89.2107 190.347 89.2099 190.343 89.209 190.337C89.2082 190.327 89.2066 190.315 89.2049 190.301C89.1853 190.129 89.1657 189.955 89.1486 189.782C89.0947 189.24 89.0497 188.696 89.0056 188.154C88.8634 186.392 88.7393 184.629 88.6167 182.867C88.4664 180.712 88.3209 178.557 88.1763 176.402C88.325 176.584 88.5481 176.688 88.8054 176.616C88.8234 176.611 88.8414 176.605 88.8585 176.598C88.8602 176.598 88.8618 176.598 88.8626 176.598C89.0252 176.61 89.187 176.624 89.3487 176.644C89.3863 176.648 89.4231 176.653 89.4607 176.658C89.4811 176.661 89.5105 176.665 89.5399 176.669C89.6788 176.689 89.8177 176.709 89.9558 176.731C90.2728 176.779 90.589 176.831 90.9052 176.885C92.6511 177.181 94.3913 177.515 96.1299 177.853C99.9952 178.604 103.854 179.392 107.709 180.191C107.918 180.234 108.126 180.278 108.335 180.322C103.414 182.196 98.4641 183.996 93.5841 185.975C92.165 186.55 90.7507 187.14 89.3545 187.769C89.0505 187.907 88.9835 188.338 89.1347 188.603C89.312 188.913 89.6731 188.956 89.9729 188.821C95.344 186.4 100.916 184.413 106.428 182.339C107.835 181.809 109.243 181.278 110.647 180.736C110.942 180.621 111.152 180.348 111.084 180.025C111.063 179.823 110.941 179.641 110.689 179.572C110.629 179.547 110.566 179.533 110.501 179.53C107.989 179.003 105.474 178.485 102.959 177.974C99.0074 177.172 95.0539 176.351 91.0767 175.684C90.4378 175.577 89.7956 175.469 89.1502 175.402C89.0064 175.388 88.8602 175.371 88.7147 175.38C88.5007 175.394 88.2646 175.506 88.1273 175.677C88.0391 174.359 87.9517 173.042 87.8642 171.725C88.0546 172.022 88.4876 172.184 88.8201 171.867C90.1233 170.625 91.388 169.343 92.6568 168.065C92.2107 169.016 92.0057 170.01 92.5596 170.903C93.1495 171.853 94.5956 172.379 95.6095 171.816C96.6291 171.249 97.4265 170.333 98.1888 169.474C98.8334 168.748 99.5017 167.967 100.329 167.431C100.362 167.546 100.412 167.657 100.481 167.76C100.735 168.142 101.226 168.338 101.655 168.447C102.548 168.672 103.498 168.559 104.387 168.378C105.07 168.239 105.737 168.048 106.398 167.835C106.383 167.988 106.429 168.151 106.562 168.296C107.486 169.301 108.435 170.203 109.756 170.652C110.981 171.067 112.303 171.138 113.584 171.239C114.192 171.287 114.799 171.313 115.375 171.533C115.969 171.76 116.518 172.073 117.135 172.241C118.292 172.557 119.54 172.596 120.729 172.477C122.05 172.345 123.39 172.038 124.55 171.373C124.54 171.438 124.528 171.503 124.516 171.568C124.487 171.718 124.51 171.851 124.565 171.963C124.624 172.117 124.746 172.25 124.944 172.318C126.606 172.881 128.331 173.241 130.024 173.697C130.699 173.879 131.483 174.098 132.071 174.344C132.31 174.445 132.551 174.561 132.762 174.713C132.767 174.718 132.776 174.726 132.793 174.743C132.801 174.749 132.806 174.756 132.813 174.763C132.808 174.767 132.803 174.772 132.797 174.777C132.77 174.801 132.673 174.89 132.691 174.875H132.693ZM89.2335 175.866C89.3038 176.038 89.2621 176.203 89.1715 176.332C89.2605 176.192 89.2973 176.022 89.2335 175.866ZM89.4435 176.655C89.428 176.653 89.4304 176.653 89.4435 176.655V176.655ZM132.859 174.808C132.859 174.808 132.862 174.811 132.863 174.812C132.866 174.819 132.872 174.83 132.88 174.846C132.871 174.829 132.864 174.817 132.858 174.808H132.859ZM132.855 174.717V174.713C132.855 174.661 132.917 174.673 132.855 174.717Z" fill="black"/>
<path d="M89.4068 178.721C90.567 179.045 91.7541 179.253 92.9306 179.509C93.6994 179.676 94.0278 178.502 93.2566 178.334C92.0801 178.077 90.893 177.869 89.7328 177.545C88.9722 177.333 88.6478 178.508 89.4068 178.72V178.721Z" fill="black"/>
<path d="M89.7719 179.548C89.6886 179.837 89.8732 180.246 90.2 180.298C91.5889 180.517 92.9468 180.894 94.3406 181.086C94.6707 181.131 94.995 181.006 95.0947 180.66C95.1764 180.376 94.9942 179.956 94.6666 179.91C93.2728 179.718 91.9149 179.341 90.526 179.122C90.1967 179.07 89.8707 179.207 89.7719 179.548Z" fill="black"/>
<path d="M93.3581 181.203C92.1955 181.052 91.0639 180.721 89.9087 180.524C89.1374 180.392 88.8057 181.566 89.5827 181.699C90.8474 181.915 92.0836 182.256 93.3573 182.421C93.6857 182.464 93.97 182.111 93.97 181.812C93.97 181.447 93.6874 181.245 93.3573 181.202L93.3581 181.203Z" fill="black"/>
<path d="M92.4341 182.951C91.6751 182.605 90.8834 182.631 90.0852 182.451C89.3172 182.278 88.9896 183.453 89.7592 183.626C90.4267 183.777 91.1841 183.715 91.8157 184.003C92.1188 184.141 92.4717 184.086 92.6539 183.784C92.8108 183.523 92.734 183.087 92.4341 182.951Z" fill="black"/>
<path d="M207.966 182.111C207.912 182.007 207.826 181.923 207.708 181.876C202.14 177.329 196.884 172.401 191.183 168.015C189.927 167.049 188.649 166.106 187.303 165.266C187.206 165.168 187.075 165.108 186.917 165.114C186.83 165.11 186.746 165.13 186.671 165.166C186.408 165.245 186.133 165.29 185.862 165.331C185.816 165.338 185.769 165.344 185.722 165.351C185.71 165.352 185.697 165.354 185.685 165.356C185.571 165.37 185.455 165.385 185.341 165.398C185.063 165.43 184.785 165.46 184.507 165.487C182.756 165.662 181.001 165.799 179.248 165.952C176.279 166.21 173.311 166.487 170.346 166.786C165.89 167.234 161.437 167.729 156.988 168.254C150.748 168.992 144.516 169.794 138.289 170.635C137.45 170.749 136.61 170.863 135.771 170.978C135.739 170.98 135.707 170.985 135.675 170.991C135.645 170.995 135.616 170.999 135.587 171.003C135.26 171.048 135.078 171.466 135.159 171.753C135.174 171.809 135.196 171.857 135.221 171.901C137.818 176.916 140.379 181.949 142.928 186.988C143.166 187.458 143.403 187.93 143.641 188.401C141.08 184.042 138.994 179.4 135.906 175.367C135.704 175.103 135.38 174.971 135.068 175.148C134.807 175.296 134.648 175.721 134.848 175.982C138.556 180.826 140.82 186.548 144.195 191.602C144.569 192.16 145.404 191.789 145.355 191.258C145.41 191.263 145.467 191.258 145.522 191.247C145.554 191.243 145.586 191.239 145.62 191.231C153.51 189.362 161.385 187.399 169.358 185.898C173.333 185.15 177.331 184.515 181.353 184.076C185.388 183.636 189.434 183.43 193.492 183.374C197.903 183.312 202.318 183.357 206.723 183.104C206.791 183.747 206.676 184.38 206.64 185.02C204.706 185.115 202.774 185.264 200.845 185.439C197.72 185.721 194.603 186.074 191.491 186.475C187.535 186.984 183.591 187.568 179.656 188.216C174.984 188.987 170.326 189.848 165.685 190.789C160.422 191.857 155.179 193.03 149.962 194.301C149.279 194.468 148.597 194.636 147.914 194.806C147.15 194.996 147.474 196.171 148.24 195.98C153.501 194.672 158.786 193.462 164.094 192.358C168.796 191.38 173.517 190.485 178.253 189.68C182.23 189.005 186.217 188.392 190.214 187.86C193.414 187.433 196.621 187.056 199.835 186.751C202.15 186.531 204.47 186.342 206.793 186.232C207.011 186.221 207.229 186.211 207.448 186.203C208.056 186.179 208.195 185.443 207.861 185.127C207.889 184.431 208.029 183.744 207.943 183.045C207.935 182.982 207.921 182.92 207.899 182.862C208.074 182.672 208.118 182.331 207.966 182.112L207.966 182.111ZM182.608 182.727C174.537 183.526 166.569 185.104 158.67 186.899C154.367 187.878 150.08 188.92 145.786 189.939C143.315 185.027 140.824 180.124 138.313 175.231C137.772 174.177 137.23 173.125 136.686 172.073C142.861 171.23 149.041 170.427 155.229 169.683C159.87 169.125 164.514 168.601 169.163 168.125C172.272 167.807 175.384 167.511 178.497 167.237C180.361 167.073 182.227 166.924 184.09 166.747C184.987 166.662 185.924 166.611 186.803 166.393C189.338 167.985 191.67 169.902 193.966 171.809C196.813 174.172 199.597 176.608 202.407 179.014C203.551 179.993 204.7 180.97 205.86 181.932C202.226 182.11 198.585 182.103 194.947 182.138C190.824 182.177 186.712 182.321 182.608 182.727Z" fill="black"/>
<path d="M186.788 186.019C190.347 185.627 193.912 185.292 197.482 185.016C198.264 184.955 198.27 183.736 197.482 183.797C190.897 184.308 184.325 185.014 177.781 185.917C170.899 186.866 164.039 188.032 157.264 189.574C153.743 190.376 150.244 191.282 146.795 192.357C146.045 192.591 146.365 193.768 147.121 193.532C153.411 191.571 159.866 190.146 166.346 188.963C173.119 187.727 179.944 186.771 186.788 186.018V186.019Z" fill="black"/>
<path d="M265.691 163.11C265.581 163.056 265.505 163.028 265.381 163.027C265.381 163.027 265.379 163.027 265.378 163.027C265.329 163.027 265.282 163.032 265.239 163.041C264.634 163.096 263.997 163.051 263.394 163.061C261.605 163.089 259.816 163.117 258.026 163.144C255.37 163.186 252.714 163.226 250.058 163.268C246.827 163.317 243.595 163.367 240.365 163.416C236.808 163.471 233.25 163.525 229.693 163.58C226.108 163.634 222.523 163.689 218.938 163.744C215.572 163.795 212.205 163.846 208.839 163.897C205.988 163.94 203.138 163.984 200.287 164.027C198.203 164.057 196.12 164.089 194.036 164.119C193.008 164.135 191.98 164.151 190.951 164.163C190.89 164.163 190.828 164.165 190.767 164.165C189.978 164.165 189.977 165.384 190.767 165.383C191.502 165.383 192.238 165.364 192.973 165.353C194.82 165.326 196.666 165.299 198.512 165.271C201.21 165.231 203.907 165.19 206.604 165.149C209.861 165.1 213.118 165.051 216.374 165.001C219.941 164.947 223.508 164.893 227.076 164.838C230.655 164.784 234.233 164.728 237.813 164.674C241.158 164.623 244.502 164.572 247.846 164.52C250.659 164.477 253.473 164.433 256.286 164.39C258.316 164.358 260.346 164.326 262.376 164.295C263.334 164.279 264.296 164.283 265.254 164.248C265.296 164.247 265.339 164.251 265.381 164.246C265.921 164.182 266.294 163.412 265.691 163.11Z" fill="black"/>
<path d="M174.093 147.777C176.884 148.487 179.748 149.305 181.854 151.371C182.416 151.922 183.283 151.061 182.721 150.509C180.459 148.292 177.42 147.365 174.419 146.602C173.654 146.407 173.328 147.582 174.093 147.777Z" fill="black"/>
<path d="M175.879 144.059C175.11 143.892 174.782 145.066 175.553 145.234C177.495 145.657 179.213 146.656 181.004 147.472C181.307 147.61 181.66 147.556 181.842 147.254C181.999 146.993 181.923 146.557 181.623 146.42C179.739 145.563 177.922 144.505 175.878 144.059H175.879Z" fill="black"/>
<path d="M141.215 140.8C144.602 142.683 148.156 144.574 151.963 145.454C153.805 145.879 155.798 146.069 157.625 145.477C158.372 145.236 158.053 144.059 157.299 144.303C155.813 144.783 154.215 144.68 152.704 144.37C150.876 143.994 149.109 143.338 147.407 142.584C145.682 141.818 144.008 140.947 142.356 140.038C140.876 139.223 139.426 138.345 137.927 137.565C135.621 136.367 133.069 135.547 131.001 133.932C130.739 133.728 130.391 133.683 130.134 133.932C129.92 134.141 129.875 134.591 130.134 134.794C132.056 136.294 134.31 137.163 136.491 138.21C138.109 138.988 139.646 139.929 141.214 140.8L141.215 140.8Z" fill="black"/>
<path d="M154.108 142.657C154.706 143.162 155.577 142.305 154.974 141.795C151.491 138.852 147.949 135.971 144.631 132.841C144.059 132.302 143.191 133.162 143.764 133.703C147.082 136.833 150.624 139.714 154.108 142.657Z" fill="black"/>
<path d="M158.814 50.8013C158.859 51.5495 158.957 52.3115 158.93 53.0622C158.897 53.9915 158.768 54.9225 158.697 55.8495C158.635 56.6318 159.862 56.6277 159.922 55.8495C159.994 54.9225 160.122 53.9915 160.156 53.0622C160.183 52.3115 160.085 51.5495 160.04 50.8013C159.993 50.0222 158.768 50.0165 158.814 50.8013Z" fill="black"/>
<path d="M183.062 80.8506C183.919 82.0944 184.853 83.2911 185.685 84.5511C185.777 84.69 185.865 84.8305 185.944 84.9768C185.983 85.0466 186.018 85.1181 186.052 85.1896C186.068 85.2221 186.081 85.2546 186.096 85.2871C186.098 85.292 186.1 85.2977 186.103 85.3042C186.257 85.7128 186.383 86.1295 186.508 86.5479C186.796 87.513 187.085 88.4765 187.389 89.436C187.626 90.1809 188.809 89.8633 188.571 89.1118C188.148 87.7803 187.82 86.4009 187.328 85.0921C187.023 84.2781 186.519 83.6046 186.01 82.906C185.369 82.0237 184.738 81.1342 184.119 80.2365C183.676 79.5931 182.613 80.2024 183.061 80.8515L183.062 80.8506Z" fill="black"/>
<path d="M185.511 79.6823C185.556 79.7261 185.598 79.7724 185.641 79.8171C185.658 79.8447 185.677 79.8707 185.693 79.8983C185.828 80.1339 185.944 80.3793 186.066 80.6214C186.418 81.3233 187.476 80.7067 187.124 80.0064C186.916 79.5921 186.734 79.1729 186.399 78.8406C185.752 78.1988 185.104 77.5692 184.487 76.8958C183.954 76.3149 183.09 77.1785 183.62 77.7577C184.229 78.4231 184.867 79.0518 185.511 79.6814V79.6823Z" fill="black"/>
<path d="M145.022 193.6C144.625 193.137 144.282 192.646 143.937 192.144C143.209 191.081 142.494 190.009 141.789 188.93C140.365 186.749 138.981 184.543 137.594 182.337C137.177 181.673 136.116 182.284 136.536 182.952C137.922 185.157 139.307 187.364 140.731 189.545C141.436 190.624 142.15 191.696 142.879 192.759C143.218 193.251 143.552 193.745 143.936 194.204C144.313 194.655 144.699 195.079 144.975 195.603C145.341 196.298 146.399 195.683 146.033 194.988C145.764 194.478 145.397 194.036 145.022 193.601V193.6Z" fill="black"/>
</g>
<defs>
<clipPath id="clip0_1_1205">
<rect width="266" height="196" fill="white"/>
</clipPath>
</defs>
</svg>
