<svg width="18" height="20" viewBox="0 0 18 20" fill="none" xmlns="http://www.w3.org/2000/svg">
<path fill-rule="evenodd" clip-rule="evenodd" d="M5.30724 0C5.68959 0 5.99955 0.312359 5.99955 0.697674V1.39535H11.9995V0.697674C11.9995 0.312359 12.3095 0 12.6919 0C13.0742 0 13.3842 0.312359 13.3842 0.697674V1.39535H13.6154C16.0369 1.39535 18 3.37363 18 5.81395V15.5814C18 18.0217 16.0369 20 13.6154 20H4.38462C1.96306 20 0 18.0217 0 15.5814V5.81395C0 3.37363 1.96306 1.39535 4.38462 1.39535H4.61493V0.697674C4.61493 0.312359 4.92489 0 5.30724 0ZM4.61493 2.7907H4.38462C2.72776 2.7907 1.38462 4.14426 1.38462 5.81395V15.5814C1.38462 17.2511 2.72776 18.6046 4.38462 18.6046H13.6154C15.2722 18.6046 16.6154 17.2511 16.6154 15.5814V5.81395C16.6154 4.14426 15.2722 2.7907 13.6154 2.7907H13.3842V3.48837C13.3842 3.87369 13.0742 4.18605 12.6919 4.18605C12.3095 4.18605 11.9995 3.87369 11.9995 3.48837V2.7907H5.99955V3.48837C5.99955 3.87369 5.68959 4.18605 5.30724 4.18605C4.92489 4.18605 4.61493 3.87369 4.61493 3.48837V2.7907ZM4.61538 7.2093C4.61538 6.82399 4.92534 6.51163 5.30769 6.51163H9C9.38235 6.51163 9.69231 6.82399 9.69231 7.2093C9.69231 7.59462 9.38235 7.90698 9 7.90698H5.30769C4.92534 7.90698 4.61538 7.59462 4.61538 7.2093ZM4.61538 10.9302C4.61538 10.5449 4.92534 10.2326 5.30769 10.2326H12.6923C13.0747 10.2326 13.3846 10.5449 13.3846 10.9302C13.3846 11.3155 13.0747 11.6279 12.6923 11.6279H5.30769C4.92534 11.6279 4.61538 11.3155 4.61538 10.9302ZM4.61538 14.6512C4.61538 14.2658 4.92534 13.9535 5.30769 13.9535H12.6923C13.0747 13.9535 13.3846 14.2658 13.3846 14.6512C13.3846 15.0365 13.0747 15.3488 12.6923 15.3488H5.30769C4.92534 15.3488 4.61538 15.0365 4.61538 14.6512Z" fill="#383838"/>
</svg>
