<svg width="24" height="28" viewBox="0 0 24 28" fill="none" xmlns="http://www.w3.org/2000/svg">
<path fill-rule="evenodd" clip-rule="evenodd" d="M18.3327 1.01205C18.3327 0.453109 17.885 0 17.3327 0C16.7804 0 16.3327 0.453109 16.3327 1.01205V3.03614H7.66602V1.01205C7.66602 0.453109 7.2183 0 6.66602 0C6.11373 0 5.66602 0.453109 5.66602 1.01205V3.03614H5.33333C2.38781 3.03614 0 5.45273 0 8.43373V22.6024C0 25.5834 2.38781 28 5.33333 28H18.6667C21.6122 28 24 25.5834 24 22.6024V8.43373C24 5.45273 21.6122 3.03614 18.6667 3.03614H18.3327V1.01205ZM6.66667 9.44578C6.11438 9.44578 5.66667 9.89889 5.66667 10.4578C5.66667 11.0168 6.11438 11.4699 6.66667 11.4699H12C12.5523 11.4699 13 11.0168 13 10.4578C13 9.89889 12.5523 9.44578 12 9.44578H6.66667ZM5.66667 15.8554C5.66667 15.2965 6.11438 14.8434 6.66667 14.8434H17.3333C17.8856 14.8434 18.3333 15.2965 18.3333 15.8554C18.3333 16.4144 17.8856 16.8675 17.3333 16.8675H6.66667C6.11438 16.8675 5.66667 16.4144 5.66667 15.8554ZM6.66667 20.241C6.11438 20.241 5.66667 20.6941 5.66667 21.253C5.66667 21.8119 6.11438 22.2651 6.66667 22.2651H17.3333C17.8856 22.2651 18.3333 21.8119 18.3333 21.253C18.3333 20.6941 17.8856 20.241 17.3333 20.241H6.66667Z" fill="#1B1B1B"/>
</svg>
