<svg width="26" height="26" viewBox="0 0 26 26" fill="none" xmlns="http://www.w3.org/2000/svg">
<path fill-rule="evenodd" clip-rule="evenodd" d="M26 13C26 16.9174 24.2673 20.4301 21.5265 22.8135C19.244 24.7983 16.2623 26 13 26C9.73768 26 6.75602 24.7983 4.47352 22.8135C1.7327 20.4301 0 16.9174 0 13C0 5.8203 5.8203 0 13 0C20.1797 0 26 5.8203 26 13ZM16.9 9.1C16.9 6.94609 15.1539 5.2 13 5.2C10.8461 5.2 9.1 6.94609 9.1 9.1C9.1 11.2539 10.8461 13 13 13C15.1539 13 16.9 11.2539 16.9 9.1ZM13 15.6C15.2265 15.6 16.6907 16.7916 17.7232 18.1161C18.4934 19.1043 18.2283 20.5539 17.1109 21.1207C15.8761 21.747 14.4793 22.1 13 22.1C11.5207 22.1 10.1239 21.747 8.88912 21.1207C7.77168 20.5539 7.50655 19.1043 8.27684 18.1161C9.30925 16.7916 10.7734 15.6 13 15.6Z" fill="#1B1B1B"/>
</svg>
