<svg width="28" height="27" viewBox="0 0 28 27" fill="none" xmlns="http://www.w3.org/2000/svg">
<path d="M22.1985 22.936C20.9568 19.6147 17.7545 17.25 14 17.25C10.2455 17.25 7.04325 19.6147 5.80146 22.936M22.1985 22.936C24.8339 20.6443 26.5 17.2667 26.5 13.5C26.5 6.59644 20.9036 1 14 1C7.09644 1 1.5 6.59644 1.5 13.5C1.5 17.2667 3.16606 20.6443 5.80146 22.936M22.1985 22.936C20.0038 24.8445 17.1368 26 14 26C10.8632 26 7.99617 24.8445 5.80146 22.936M17.75 9.75C17.75 11.8211 16.0711 13.5 14 13.5C11.9289 13.5 10.25 11.8211 10.25 9.75C10.25 7.67893 11.9289 6 14 6C16.0711 6 17.75 7.67893 17.75 9.75Z" stroke="#1B1B1B" stroke-width="1.5" stroke-linejoin="round"/>
</svg>
