<svg width="23" height="20" viewBox="0 0 23 20" fill="none" xmlns="http://www.w3.org/2000/svg">
<path fill-rule="evenodd" clip-rule="evenodd" d="M0.75 2.5C0.75 1.25736 1.75736 0.25 3 0.25C4.24264 0.25 5.25 1.25736 5.25 2.5V15.5389C5.25 16.4767 4.97242 17.3935 4.45224 18.1737L3.62404 19.416C3.48494 19.6247 3.25076 19.75 3 19.75C2.74924 19.75 2.51506 19.6247 2.37596 19.416L1.54776 18.1737C1.02758 17.3935 0.75 16.4767 0.75 15.5389V2.5ZM2.25 5.75V15.5389C2.25 16.1805 2.43992 16.8078 2.79584 17.3417L3 17.6479L3.20416 17.3417C3.56008 16.8078 3.75 16.1805 3.75 15.5389V5.75H2.25ZM3.75 4.25H2.25V2.5C2.25 2.08579 2.58579 1.75 3 1.75C3.41421 1.75 3.75 2.08579 3.75 2.5V4.25ZM6.75 4C6.75 1.92893 8.42893 0.25 10.5 0.25H18.5C20.5711 0.25 22.25 1.92893 22.25 4V16C22.25 18.0711 20.5711 19.75 18.5 19.75H10.5C8.42893 19.75 6.75 18.0711 6.75 16V4ZM10.5 1.75C9.25736 1.75 8.25 2.75736 8.25 4V16C8.25 17.2426 9.25736 18.25 10.5 18.25H18.5C19.7426 18.25 20.75 17.2426 20.75 16V4C20.75 2.75736 19.7426 1.75 18.5 1.75H10.5ZM10.75 6C10.75 5.58579 11.0858 5.25 11.5 5.25H17.5C17.9142 5.25 18.25 5.58579 18.25 6C18.25 6.41421 17.9142 6.75 17.5 6.75H11.5C11.0858 6.75 10.75 6.41421 10.75 6ZM10.75 10C10.75 9.58579 11.0858 9.25 11.5 9.25H17.5C17.9142 9.25 18.25 9.58579 18.25 10C18.25 10.4142 17.9142 10.75 17.5 10.75H11.5C11.0858 10.75 10.75 10.4142 10.75 10ZM10.75 14C10.75 13.5858 11.0858 13.25 11.5 13.25H14.5C14.9142 13.25 15.25 13.5858 15.25 14C15.25 14.4142 14.9142 14.75 14.5 14.75H11.5C11.0858 14.75 10.75 14.4142 10.75 14Z" fill="#2AB579"/>
</svg>
