<svg width="10" height="10" viewBox="0 0 10 10" fill="none" xmlns="http://www.w3.org/2000/svg">
<path opacity="0.4" d="M10 5C10 7.76142 7.76142 10 5 10C2.23858 10 0 7.76142 0 5C0 2.23858 2.23858 0 5 0C7.76142 0 10 2.23858 10 5Z" fill="#1B1B1B"/>
<path d="M6.00012 5.00195C6.00012 5.55424 5.55241 6.00195 5.00012 6.00195C4.44784 6.00195 4.00012 5.55424 4.00012 5.00195C4.00012 4.44967 4.44784 4.00195 5.00012 4.00195C5.55241 4.00195 6.00012 4.44967 6.00012 5.00195Z" fill="#1B1B1B"/>
<path fill-rule="evenodd" clip-rule="evenodd" d="M4.99988 1.62305C4.79277 1.62305 4.62488 1.79094 4.62488 1.99805V4.24805C4.62488 4.45515 4.79277 4.62305 4.99988 4.62305C5.20698 4.62305 5.37488 4.45515 5.37488 4.24805V1.99805C5.37488 1.79094 5.20698 1.62305 4.99988 1.62305Z" fill="#1B1B1B"/>
</svg>
